<?xml version="1.0" encoding="UTF-8"?>
<svg id="Layer_1" data-name="Layer 1" xmlns="http://www.w3.org/2000/svg" viewBox="0 0 667.97 650.27">
  <defs>
    <style>
      .cls-1 {
        fill: #fff;
      }

      .cls-2 {
        fill: #e39476;
      }

      .cls-3 {
        fill: #a19086;
      }

      .cls-4 {
        fill: #4f95cf;
      }

      .cls-5 {
        fill: #ab684d;
      }

      .cls-6 {
        fill: #fffbf2;
      }

      .cls-7 {
        fill: #37628f;
      }

      .cls-8 {
        fill: #dedede;
      }

      .cls-9 {
        fill: #8cc295;
      }

      .cls-10 {
        fill: #2b1a0f;
      }

      .cls-11 {
        fill: #f5b49b;
      }

      .cls-12 {
        fill: #ffbc3b;
      }

      .cls-13 {
        fill: #a84216;
      }

      .cls-14 {
        fill: #1e244a;
      }

      .cls-15 {
        fill: none;
      }

      .cls-16 {
        fill: #2e5378;
      }

      .cls-17 {
        fill: #ededed;
      }
    </style>
  </defs>
  <path class="cls-4" d="m291.59,574.01c-.23-7.29-.47-14.58-.8-21.87-.66-14.74-1.69-29.49-3.76-44.11-3.47-24.48-12.59-46.26-18.96-69.89-2.53-9.37-4.51-18.87-6.03-28.45-2.83-17.87-3.95-35.83-3.8-53.88.15-17.69,1.43-35.55,7.64-52.27,3.37-9.09,7.12-20.48,14.5-27.16,1.17-1.05,3.25-2.22,4.21-3.2,0,0,0-.02,0-.03.37-.28.72-.57,1.06-.87.25-1.64.56-3.26.8-4.92.02-.12.04-.25.05-.38-3.82-.31-8.03,2.45-11.39,3.91-8,3.48-16.21,6.45-24.18,10.01-3.67,1.64-7.39,3.35-10.98,5.09-3.5,1.7-6.25,4.57-9.76,6.28-3.93,1.91-7.86,3.81-11.86,5.59-3.02,1.35-6.05,2.69-9.06,4.07,2.15,5.8,4.95,11.37,8.33,16.55-.11.37-.21.75-.33,1.12-2.97,9.43-8.75,17.57-12.69,26.56-.97,2.21-1.78,4.46-2.58,6.7h0c1.81.99,1.88,3.19,2.5,5.09,5.09,15.78-3.26,24.9-5.55,39.66-1.84,11.82,2.58,22.52,2.09,34.06-.32,7.45-4.45,13.83-6.37,20.86-.86,3.15-1.45,6.36-1.91,9.59-4.28,30.81-11.21,61.47-17.24,92.03-1.45,7.32-2.7,15.23-4.59,22.97h.02c1.94,23.65,2.2,47.83,2.01,71.73h118.48c.52-10.68.91-21.37.94-32.06.05-14.38-.35-28.46-.8-42.8Zm-26.16-41.37c-1.71-3.82.54-8.93,4.98-9.24,2.05-.14,3.31-.07,5.02,1.26,3.66,2.86,2.12,7.53-.44,10.56-2.53,3.01-8.22.43-9.57-2.59Zm13.75,71.38c-2.54,3.01-8.22.43-9.57-2.59-1.71-3.83.54-8.93,4.98-9.24,2.05-.14,3.32-.07,5.02,1.26,3.66,2.86,2.12,7.53-.43,10.56Z"/>
  <path class="cls-12" d="m202.82,109.45c1.15.72,1.21,2.37.22,3.17-1.18.95-2.52,1.1-3.96.9-1.97-.27-4.02-.4-5.99-.5-2.33-.12-4.67-.13-7-.21-1.7-.06-4.68.26-6.05-.98-1.73-1.58-.25-3.12,1.57-3.5,1.66-.34,3.39,0,5.03.08,1.2.05,2.42.11,3.64.15,2.59.09,5.18.05,7.77.07,1.59.01,3.37-.06,4.77.82Z"/>
  <path class="cls-12" d="m186.62,71.87c2.2.14,2.04,2.56.7,3.65-.19.74-1.34.94-1.94,1.39-.89.66-5.74,4.42-6.5,5.23-.68.72-1.49,1.08-2.29,1.66-1.06.76-4.56,3.43-5.69,1.35-.33-.62-.1-1.42.23-1.97.73-1.21,2.09-2.09,3.32-2.74,1.14-.6,2.43-1.43,3.24-2.45.77-.96,5.71-4.39,6.65-5.15.64-.52,1.41-1.04,2.28-.98Z"/>
  <path class="cls-12" d="m186.62,149.44c.31,1.32-.81,2.53-2.08,2.4-1.51-.15-2.57-1-3.45-2.14-1.21-1.57-2.57-3.11-3.91-4.57-1.57-1.72-3.23-3.38-4.83-5.08-1.16-1.24-3.51-3.11-3.6-4.95-.12-2.34,2.02-2.39,3.58-1.38,1.42.92,2.4,2.39,3.52,3.59.82.88,1.65,1.78,2.48,2.67,1.78,1.89,3.65,3.68,5.48,5.52,1.12,1.13,2.44,2.33,2.81,3.94Z"/>
  <path class="cls-12" d="m162.06,112.27c.54,3.37-3.35,3.26-5.81,3.11.73-1.46,1.66-2.81,2.91-3.89,1.21-1.05,2.6-1.09,2.9.78Z"/>
  <path class="cls-8" d="m155.95,157.06c0,.1-.35-.05-.54-.12-.36-.12-.74-.25-1.09-.4-.83-.33-1.42-.59-2.28-.8-4-.94-7.98-2.38-11.89-3.62h-.11c0-1.12.06-2.25-.02-3.35-.05-.71-.31-1.51-.34-2.27h.06c0,.37,7.19,2.82,7.87,3.02,2.62.79,5.28,1.3,7.73,2.54.31.16.72.57,1.03.46h.13c0,1.53-.09,3.06-.35,4.57l-.22-.04Z"/>
  <path class="cls-8" d="m155.41,156.95c.19.06.54.22.54.12l.22.04c-.06.39-.14.79-.24,1.18-.29,1.18-.47,2.34-1.07,3.41-.17.31-.36.59-.56.87l-.04-.03c-1.06-.43-2.14-1.04-3.25-1.4-3.48-1.14-7-2.67-10.37-4.1h-.37c-.01-1.01.03-2.03-.11-3.04-.08-.61-.11-1.23-.12-1.85h.11c3.91,1.25,7.89,2.68,11.89,3.62.86.2,1.45.46,2.28.8.35.14.73.28,1.09.4Z"/>
  <path class="cls-12" d="m144.62,144.65h-.05c-.28-4.02-1.54-7.9-2.15-11.9-.76-5.01-1.22-10.33-2.97-15.12-.28-.76-.6-1.52-.96-2.25.3-.02.57-.03.82-.05.95-.05,1.97-.4,2.86-.72,1.02-.36,1.86-1.05,2.65-1.76.75-.66,1.65-1.28,2.2-2.12.06-.09.12-.19.18-.29,1.28,1.89,3.11,3.38,5.36,4.17.89.31,1.91.67,2.86.72.25.01.52.03.82.05-.37.73-.68,1.49-.96,2.25-1.76,4.79-2.21,10.11-2.98,15.12-.55,3.61-1.85,7.31-1.88,10.97,0,.34.05.68.06,1.02-1.96.01-3.94-.04-5.87-.1Z"/>
  <path class="cls-8" d="m154.27,162.53l.04.03c-.46.64-.99,1.22-1.62,1.73-1.5,1.22-3.9,1.39-5.73,1.15-2.21-.29-4.14-1.65-5.32-3.52-.6-.95-1.04-2.03-1.22-3.13-.1-.58-.13-1.17-.13-1.76h.37c3.37,1.43,6.89,2.96,10.37,4.09,1.12.37,2.2.98,3.25,1.4Z"/>
  <path class="cls-12" d="m148.55,104.51c.04,2.02-.29,4.19-1.34,5.94-.93-1.37-1.57-2.96-1.88-4.64-.25-1.34-.25-3.81,1.18-4.6,1.45-.79,2.02,2.54,2.04,3.3Z"/>
  <path class="cls-12" d="m148.31,56.95c.46.6-.09,1.64-.11,2.38-.02,1.11-.06,7.25.12,8.34.15.98-.06,1.84-.1,2.83-.06,1.3-.11,5.7-2.44,5.31-.69-.12-1.19-.8-1.41-1.39-.51-1.32-.36-2.94-.11-4.3.23-1.27.37-2.8.07-4.06-.28-1.2.06-7.2.05-8.41-.01-.83.05-1.76.63-2.41,1.47-1.65,3.28-.03,3.31,1.7Z"/>
  <path class="cls-9" d="m144.62,144.65c-.01.05,0,.08-.04.13,0-.04,0-.09,0-.13h.05Z"/>
  <path class="cls-12" d="m140.79,144.55l-.43.22-.11-.32c-.56-1.51-1.15-2.81-2.04-4.17-2.12-3.25-5.66-4.75-8.54-7.12-6.94-5.69-11.26-14.68-11.72-23.7-.75-14.6,10.39-28.39,25.35-28.73,6.54-.15,13.87,1.26,19.19,5.16,5.11,3.75,9.05,9.07,10.95,15.13,1.96,6.24,1.76,13.02-.44,19.17-1.1,3.09-2.69,5.99-4.68,8.59-2.14,2.8-5.32,4.5-7.5,7.16-1.99,2.41-4.76,4.85-5.04,8.16l-.04.35-.2.08c-1.65.15-3.34.2-5.04.21,0-.34-.06-.68-.06-1.02.03-3.67,1.32-7.36,1.88-10.97.76-5.01,1.22-10.33,2.98-15.12.28-.76.59-1.52.96-2.25,2.46.14,6.35.26,5.81-3.11-.3-1.87-1.69-1.83-2.9-.78-1.25,1.08-2.18,2.43-2.91,3.89-.3-.02-.57-.03-.82-.05-.95-.05-1.97-.4-2.86-.72-2.25-.79-4.08-2.28-5.36-4.17,1.05-1.75,1.38-3.92,1.34-5.94-.01-.76-.59-4.09-2.04-3.3-1.43.79-1.43,3.26-1.18,4.6.31,1.69.95,3.27,1.88,4.64-.06.1-.12.19-.18.29-.55.83-1.46,1.45-2.2,2.12-.79.71-1.64,1.4-2.65,1.76-.89.31-1.92.67-2.86.72-.25.01-.52.03-.82.05-.73-1.46-1.66-2.81-2.91-3.89-1.21-1.05-2.59-1.09-2.9.78-.54,3.37,3.35,3.26,5.81,3.11.37.73.68,1.49.96,2.25,1.75,4.79,2.21,10.11,2.97,15.12.61,3.99,1.87,7.88,2.15,11.9-1.28-.04-2.55-.08-3.78-.1Z"/>
  <path class="cls-8" d="m139.75,146.5h-.06c-.03-.63.11-1.24.66-1.73l.43-.22c1.24.02,2.5.06,3.78.1,0,.04,0,.09,0,.13.05-.05.03-.08.04-.13,1.93.06,3.9.11,5.87.1,1.7,0,3.39-.06,5.04-.21l.2-.08c.76.49.8,1.6.8,2.4,0,1.1-.06,2.18-.04,3.29.02.79.03,1.59.03,2.38h-.13c-.31.11-.72-.3-1.03-.46-2.45-1.24-5.11-1.76-7.73-2.54-.67-.2-7.87-2.66-7.87-3.03Z"/>
  <path class="cls-12" d="m135.57,111.49c1.25,1.08,2.18,2.43,2.91,3.89-2.46.14-6.35.26-5.81-3.11.3-1.87,1.69-1.83,2.9-.78Z"/>
  <path class="cls-12" d="m119.95,133.72c1.56-1.01,3.7-.96,3.58,1.38-.09,1.84-2.44,3.72-3.6,4.95-1.6,1.7-3.25,3.35-4.83,5.08-1.33,1.46-2.7,3-3.91,4.57-.88,1.14-1.94,1.99-3.45,2.14-1.27.13-2.39-1.08-2.08-2.4.38-1.61,1.7-2.81,2.82-3.94,1.83-1.84,3.7-3.64,5.48-5.52.83-.88,1.66-1.78,2.48-2.67,1.12-1.2,2.1-2.67,3.52-3.59Z"/>
  <path class="cls-12" d="m116.67,84.66c1.28,1.35,1.61,3.46-.7,3.77-1.83.24-4.1-1.72-5.53-2.64-1.96-1.26-3.89-2.58-5.87-3.82-1.68-1.05-3.44-2.11-5.21-3.01-1.29-.66-2.31-1.55-2.74-3-.35-1.22.63-2.54,1.99-2.48,1.65.07,3.08,1.15,4.39,2.05,2.14,1.46,4.25,2.97,6.43,4.37,1.02.66,2.06,1.31,3.07,1.95,1.39.88,3.01,1.58,4.17,2.81Z"/>
  <path class="cls-12" d="m110.68,108.33c1.83.38,3.3,1.92,1.57,3.5-1.36,1.24-4.35.92-6.04.98-2.33.08-4.67.09-7.01.21-1.97.1-4.02.23-5.99.5-1.43.19-2.78.05-3.96-.9-.99-.8-.93-2.45.22-3.17,1.4-.88,3.19-.81,4.78-.82,2.59-.02,5.18.02,7.77-.07,1.21-.04,2.43-.1,3.64-.15,1.64-.07,3.37-.42,5.03-.08Z"/>
  <path class="cls-2" d="m321.65,250.18v-.24c10.71-.35,23.2-6.58,32.4-13.73l.19.24c-.39,3.09-.21,6.49-.44,9.27-.46,5.44-.74,11.07-.33,16.55-6.35.38-12.5,2.01-19.08,1.49-7.35-.59-15.19-2.49-22.05-5.16-6.05-2.35-11.42-6.25-16.56-10.14-3.51-2.65-6.27-5.81-9.28-8.98-.54-.56-1.1-1.31-1.7-2.08,3.49,1.96,7.05,3.82,10.67,5.72,4.44,2.32,9.18,3.86,14.02,5.18,3.9,1.07,8.16,1.77,12.16,1.88Z"/>
  <path class="cls-7" d="m275.44,524.66c3.66,2.86,2.12,7.53-.44,10.56-2.53,3.01-8.22.43-9.57-2.59-1.71-3.82.54-8.93,4.98-9.24,2.05-.14,3.31-.07,5.02,1.26Z"/>
  <path class="cls-4" d="m461.38,648.87h-96.95c.14-14.85.33-29.82-.99-44.54-1.11-12.38-1.78-24.83-1.45-37.26.28-10.22-.54-20.58-.19-30.87.38-11.51,2.86-22.96,3.33-34.52.35-8.62,1.84-16.96,3.66-25.39,2.09-9.67,1.96-19.63,4.6-29.28,2.67-9.74,5.51-19.42,7.44-29.4,1.76-9.07,2.84-18.22,4.7-27.25,4.22-20.46,4.32-41.17.98-61.79-.97-6.02-1.39-12-2.88-17.95-2.92-11.63-8.22-22.98-17.31-31.07-3.36-2.99-7.96-4.44-11.24-7.22-.3-1.63-.66-3.25-.96-4.89-.02-.12-.05-.25-.07-.37,3.81-.43,8.1,2.2,11.51,3.55,8.1,3.22,16.41,5.93,24.49,9.24,3.72,1.52,7.5,3.12,11.13,4.74,3.55,1.59,6.39,4.37,9.95,5.96,3.99,1.79,7.98,3.55,12.03,5.21,8.61,3.53,17.31,6.94,25.38,11.62,10.71,6.21,20.77,12.42,29.3,21.63,7.96,8.61,14.3,19.97,19.81,30.25,6.1,11.38,10.71,24.11,14.83,36.32,1,2.96,2.46,5.94,3.04,9.01,1.08,5.77,1.47,11.8,2.35,17.64.99,6.6,1.88,13.22,2.71,19.85,1.67,13.48,3.02,26.99,4.19,40.51,1.49,17.25,1.31,34.6,3.15,51.82,1.81,16.87,8.39,32,11.23,48.56,1.84,10.74-.3,21.51-1,32.24-.38,5.78,1.75,11.37,1.68,17.12-.07,5.54-1.55,10.95-1.71,16.51h-76.74Z"/>
  <path class="cls-11" d="m147.2,340.19c-.58-2.74-.93-5.5-1.45-8.29-.54-2.94-1.21-5.87-1.87-8.79-2.77-12.2-4.86-23.58-1.01-35.8,3.46-10.98,9.45-21.04,12.07-32.3,1.8-7.72,1.37-15.47,1.12-23.34-.31-9.64.19-19.32.25-28.96.04-6.75-.75-16.56,5.94-20.66,1.9-1.16,3.05-1.18,5.08-.27,5.79,2.62,6.87,11.17,7.12,16.65.7,15.34.12,30.63.06,45.99,0,.83.15,1.35.19,2.1,2.12-.08,4.24.16,6.24.76,8.95,2.7,15.03,10.65,20.53,17.83,1.25-5.25,4.16-11.6,9.65-13.44,1.67-.56,3.1-.95,4.75-.35,2.52.93,4.83,2.49,6.04,4.96,2.59,5.3-.09,11.91-1.26,17.25-.81,3.68-1.79,7.3-1.77,11.13.02,4.18.71,8.32.82,12.5.08,3.39.07,6.82-.19,10.22-.31,4.14-.97,8.24-2.22,12.21-2.97,9.43-8.75,17.57-12.69,26.56-.97,2.21-1.78,4.46-2.58,6.7-2.33,6.48-4.6,12.8-10.53,17.34-7.8,5.98-18.24,4.02-26.16-.63-4.31-2.53-8.17-5.9-11.26-9.83-1.73-2.2-2.31-3.75-2.8-6.4-.65-3.47-2.33-6.79-3.32-10.17-.29-.99-.53-1.98-.74-2.98Z"/>
  <path class="cls-1" d="m342.7,188.34c1.84,4.52-2.15,9.61-5.14,12.68-4.96,5.09-11.44,8.05-18.64,7.12-4.06-.53-7.29-1.43-10.74-3.7-3.13-2.06-6.07-4.51-8.31-7.53-1.75-2.36-3.13-6.66-1.17-9.32,1.62-2.2,4.74-2.96,7.35-2.69,2.41.25,4.88.28,7.29.46,2.27.16,4.51.07,6.77-.03,2.95-.14,5.93.01,8.86-.37,2.68-.35,5.3-1.46,8.03-.87,2.51.54,4.67,1.76,5.69,4.26Z"/>
  <path class="cls-14" d="m227.92,152.93c-.42-2.92-.75-5.85-1.09-8.76-.38-3.18-.65-6.44-1.63-9.52-1.98-6.2-5.81-11.6-7.92-17.75-.99-2.89-1.55-5.51-1.51-8.58.05-3.33.49-6.64.78-9.96.48-5.55,1.64-11.02,2.94-16.43,1.71-7.12,4.27-14.49,3.5-21.89-.09-.86-.2-1.71-.31-2.57-.71-5.58,1.18-9.72,3.73-14.52,3.94-7.42,9.82-14.29,17.35-18.25,8.28-4.34,18.4-5.81,27.05-9.57,3.72-1.61,7.29-3.55,10.7-5.75,1.4-.9,2.46-2.06,3.93-2.83,2.22-1.15,4.56-2.08,6.84-3.06,2.73-1.17,5.64-2.08,8.57-2.61,8.93-1.59,18.59-1.05,27.3,1.45,8.54,2.45,17.4,7.68,19.52,16.97.54,2.39,2.33,2.16,4.5,2.16,6.41-1.46,13.29,0,19,3.13,8.3,4.55,11.11,12.44,15.58,20.14,3.97,6.84,9.52,12.56,14.38,18.74,6.18,7.87,10.89,16.77,9.36,27.08-.71,4.81-1.45,9.32-1.3,14.14.15,4.9-2.19,10.46-3.41,15.16-.79,3.04-1.09,6.35-2.28,9.22-2.85,6.87-3.32,14.1-2.99,21.41.02.53.05,1.06.08,1.6.1,1.74-.03,4.1-.16,5.86-.11,1.42-.23,2.73-.72,4.08-.42,1.15-1.38,2.92-2.78,3.13-4.58.68-3.7-12.61-3.77-15.06-.23-8.08-1.66-17.11-6.31-23.94-2.41-3.55-3.9-8.04-4.88-12.21-1.1-4.62-1.39-8.97-1.38-13.69,0-7.33.54-14.74-3.39-21.41-3.59-6.1-10.97-8.79-17.7-9.29-1.61-.12-2.64-.02-4.22-.12-10.89-.65-21.61.09-31.74,4.35-3.19,1.34-6.69,1.89-10.14,1.82-8.88-.16-17.27-3.71-25.87-5.51-4.24-.89-8.25-1.1-12.52-.81-4.43.3-8.88.58-12.56,3.41-3.32,2.55-5.59,6.24-6.87,10.18-.89,2.73-1.39,5.58-1.68,8.43-.36,3.58.68,6.98.38,10.53-.51,6.18-1.65,12.1-4.64,17.59-.77,1.43-1.31,2.96-1.96,4.44-.59,1.34-1.49,2.33-2.29,3.54-1.75,2.66-3.69,5.25-4.91,8.22-2.77,6.78-1.02,14.21-.92,21.27.04,2.89.02,6.03-1.88,8.4-1.96,2.45-4.58,1.77-6.45-.43-1.95-2.29-2.17-5.2-2.66-8.03-.23-1.31-.43-2.63-.61-3.95Z"/>
  <path class="cls-9" d="m354.05,267.08c.02.12.04.25.07.37-.13-.08-.25-.06-.29-.35.07-.01.15-.02.23-.03Z"/>
  <path class="cls-10" d="m357.43,142.65c.5,2.57-.33,5.32-1.75,7.46-1.58,2.38-5.06,2.69-7.64,1.98-5.77-1.58-7.47-8.44-3.43-12.73,2.16-2.29,5.82-3.92,8.83-2.33,1.86.98,3.6,3.57,4,5.61Z"/>
  <path class="cls-7" d="m279.61,593.45c3.66,2.86,2.12,7.53-.43,10.56-2.54,3.01-8.22.43-9.57-2.59-1.71-3.83.54-8.93,4.98-9.24,2.05-.14,3.32-.07,5.02,1.26Z"/>
  <path class="cls-4" d="m204.51,357.96c5.09,15.78-3.26,24.9-5.55,39.66-1.84,11.82,2.58,22.51,2.09,34.06-.32,7.45-4.45,13.83-6.37,20.86-.86,3.15-1.45,6.36-1.91,9.59-4.28,30.81-11.21,61.47-17.24,92.03-1.45,7.32-2.7,15.23-4.59,22.97-2.39,9.81-5.81,19.34-11.92,27.02-14.51,18.24-49.4,25.32-67.82,8.51-11-10.04-15.23-26.01-16.72-40.31-3.33-31.7,6.21-65.65,16.83-95.15,3.71-10.32,8.73-20.12,12.51-30.41,3.57-9.74,5.93-19.34,6.97-29.66.74-7.26,2.46-14.38,5.95-20.84,4.09-7.58,11.15-13.03,13.64-21.5,3.39-11.53,1.21-24.89,12.96-32.32,1.31-.83,2.83-1.25,3.85-2.28.21,1,.45,1.99.74,2.98.99,3.38,2.67,6.7,3.32,10.17.49,2.65,1.08,4.2,2.8,6.4,3.08,3.94,6.94,7.31,11.26,9.83,7.92,4.65,18.36,6.61,26.16.63,5.92-4.54,8.2-10.86,10.53-17.34h0c1.81.99,1.88,3.19,2.5,5.09Z"/>
  <path class="cls-11" d="m284.5,267.68c0-.26,0-.51.02-.77.23-5.18.33-10.37.02-15.55-.15-2.59-.4-5.17-.79-7.73-.16-1.09-.51-2.17-.71-3.2-.18-.97.09-2.46-.58-3.26l.48-.83c.62.36,1.24.71,1.87,1.07.6.76,1.16,1.51,1.7,2.08,3.01,3.17,5.77,6.33,9.28,8.98,5.14,3.88,10.52,7.78,16.56,10.14,6.87,2.67,14.71,4.57,22.05,5.16,6.58.53,12.73-1.1,19.08-1.49.07.95.16,1.89.27,2.83.08.67.19,1.33.3,1.99-.07,0-.15.02-.23.03.04.28.16.27.29.35.3,1.65.65,3.27.96,4.89.41,2.22.72,4.46.59,6.8-.23,4.31-1.42,8.54-3.34,12.39-3.8,7.64-10.45,13.97-18.43,17.07-1.57.61-3.13,1.32-4.72,1.87-2.85,1-6.14,1.39-9.14,1.23-3.05-.16-6.28-.77-9.24-1.55-4.91-1.31-9.01-2.65-13.17-5.71-6.29-4.62-11.16-11.36-13.13-18.96-.77-2.97-.82-5.26-.24-8.18.27-1.35.35-2.74.35-4.14,0-1.84-.13-3.69-.09-5.5Z"/>
  <path class="cls-14" d="m364.27,113.73c1.23,2,.09,4.14-2.12,4.47-2.06.31-4.07-.59-5.97-1.25-.86-.3-1.8-.66-2.67-.88-1.09-.27-2.16.07-3.25.04-3.16-.1-5.95,1.12-8.9,2.06-.78.25-1.79.34-2.58-.12-2.7-1.56-.59-4.2,1.04-5.65,1.14-1.01,2.15-1.63,3.57-2.17,1.83-.69,3.93-1.45,5.86-1.75,1.67-.26,3.41-.38,5.09-.19,3.46.38,8.04,2.37,9.93,5.44Z"/>
  <path class="cls-14" d="m294.48,113.73c1.23,2,.09,4.14-2.12,4.47-2.06.31-4.06-.59-5.96-1.25-.86-.3-1.8-.66-2.67-.88-1.09-.27-2.16.07-3.26.04-3.16-.1-5.95,1.12-8.9,2.06-.78.25-1.78.34-2.57-.12-2.7-1.56-.59-4.2,1.04-5.65,1.14-1.01,2.15-1.63,3.57-2.17,1.83-.69,3.93-1.45,5.86-1.75,1.67-.26,3.41-.38,5.09-.19,3.46.38,8.04,2.37,9.93,5.44Z"/>
  <path class="cls-10" d="m288.72,142.65c.5,2.57-.34,5.32-1.76,7.46-1.58,2.38-5.06,2.69-7.64,1.98-5.77-1.58-7.47-8.44-3.43-12.73,2.16-2.29,5.82-3.92,8.83-2.33,1.86.98,3.61,3.57,4,5.61Z"/>
  <path class="cls-11" d="m284.81,237.4c-.63-.35-1.25-.71-1.87-1.07-3.57-2.05-7.08-4.23-10.52-6.67-6.77-4.8-14.03-10.28-19.03-16.99-2.96-3.97-6.03-7.76-9.12-11.64-2.76-3.45-4.53-7.56-7.2-11.07-2.84-3.74-6.03-4.33-9.97-6.56-4.02-2.28-7.78-5.39-10.48-9.16-1.05-1.47-2.16-2.57-2.9-4.23-.8-1.8-1.59-3.56-2.09-5.48-1-3.83-1.06-7.95.48-11.65,1.26-3.04,4.39-5.34,7.67-5.67,4.37-.44,5.88,2.73,8.15,5.72.18,1.32.38,2.63.61,3.95.49,2.83.71,5.74,2.66,8.03,1.87,2.2,4.49,2.87,6.45.43,1.9-2.37,1.92-5.51,1.88-8.4-.1-7.06-1.85-14.49.92-21.27,1.21-2.97,3.16-5.56,4.91-8.22.8-1.21,1.69-2.2,2.29-3.54.65-1.48,1.19-3.01,1.96-4.44,2.99-5.49,4.13-11.41,4.64-17.59.3-3.55-.74-6.95-.38-10.53.29-2.85.78-5.7,1.68-8.43,1.28-3.95,3.55-7.63,6.87-10.18,3.68-2.83,8.13-3.11,12.56-3.41,4.27-.29,8.29-.09,12.52.81,8.59,1.8,16.99,5.35,25.87,5.51,3.45.07,6.95-.48,10.14-1.82,10.13-4.25,20.85-5,31.74-4.35,1.58.09,2.61,0,4.22.12,6.73.5,14.11,3.2,17.7,9.29,3.93,6.67,3.4,14.07,3.39,21.41,0,4.71.28,9.06,1.38,13.69.99,4.17,2.47,8.66,4.88,12.21,4.65,6.84,6.08,15.87,6.31,23.94.07,2.45-.81,15.74,3.77,15.06,1.4-.21,2.36-1.98,2.78-3.13.49-1.35.61-2.66.72-4.08.14-1.76.27-4.12.16-5.86-.03-.54-.06-1.07-.08-1.6h.21c3.88-5.81,12.24-2.81,14.55,2.74,1.59,3.82,1.53,8.08.49,12.03-.52,1.98-1.33,3.79-2.15,5.65-.76,1.73-1.91,2.86-2.99,4.37-2.79,3.88-6.68,7.1-10.83,9.45-3.06,1.73-6.28,3.13-9.41,4.72l-.22-.1c-3.97,9.05-8.86,18.43-14.94,25.76-4.75,5.74-10.55,11.4-15.93,16.58-1.57,1.51-3.32,3.02-5.21,4.49-9.2,7.16-21.69,13.38-32.39,13.73v.24c-4-.12-8.27-.82-12.17-1.88-4.84-1.32-9.58-2.86-14.02-5.18-3.62-1.89-7.17-3.76-10.67-5.72Zm77.35-119.2c2.21-.33,3.34-2.47,2.12-4.47-1.89-3.06-6.47-5.06-9.93-5.44-1.68-.19-3.42-.07-5.09.19-1.93.3-4.03,1.05-5.86,1.75-1.42.54-2.44,1.16-3.57,2.17-1.63,1.45-3.74,4.09-1.04,5.65.79.45,1.8.36,2.58.12,2.95-.94,5.74-2.15,8.9-2.06,1.1.03,2.17-.31,3.25-.04.88.21,1.81.57,2.67.88,1.9.66,3.91,1.56,5.97,1.25Zm-6.48,31.91c1.42-2.15,2.25-4.89,1.75-7.46-.4-2.04-2.14-4.63-4-5.61-3.02-1.6-6.68.03-8.83,2.33-4.04,4.29-2.34,11.14,3.43,12.73,2.59.71,6.07.4,7.64-1.98Zm-18.12,50.91c2.99-3.07,6.98-8.16,5.14-12.68-1.02-2.5-3.18-3.71-5.69-4.26-2.73-.59-5.35.52-8.03.87-2.94.38-5.91.23-8.86.37-2.26.1-4.5.19-6.77.03-2.41-.17-4.88-.21-7.29-.46-2.61-.27-5.72.49-7.35,2.69-1.96,2.65-.58,6.95,1.17,9.32,2.23,3.02,5.18,5.48,8.31,7.53,3.45,2.27,6.68,3.18,10.74,3.7,7.21.93,13.69-2.02,18.64-7.12Zm-45.2-82.82c2.21-.33,3.35-2.47,2.12-4.47-1.89-3.06-6.47-5.06-9.93-5.44-1.68-.19-3.41-.07-5.09.19-1.92.3-4.02,1.05-5.86,1.75-1.43.54-2.44,1.16-3.57,2.17-1.63,1.45-3.74,4.09-1.04,5.65.79.45,1.8.36,2.57.12,2.95-.94,5.74-2.15,8.9-2.06,1.1.03,2.17-.31,3.26-.04.88.21,1.81.57,2.67.88,1.9.66,3.9,1.56,5.96,1.25Zm-5.4,31.91c1.42-2.15,2.26-4.89,1.76-7.46-.4-2.04-2.15-4.63-4-5.61-3.02-1.6-6.67.03-8.83,2.33-4.04,4.29-2.34,11.14,3.43,12.73,2.59.71,6.07.4,7.64-1.98Z"/>
  <path class="cls-1" d="m135.96,94.33c-1.89.8-3.93,2.31-4.29,3.96-.2.89.08,1.85-.16,2.73-.39,1.48-1.99,2.21-3.13,3.22-1.92,1.71-2.64,4.65-1.72,7.05.73,1.92,2.39,3.5,2.61,5.54.18,1.73-.65,3.77.52,5.06.99,1.09,2.75.84,4.14,1.35,1.78.66,2.85,2.55,4.58,3.34,2.51,1.14,5.37-.39,8.12-.51,1.67-.07,3.31.38,4.96.58,1.66.2,3.47.11,4.8-.9,1.46-1.11,1.99-3.03,3.07-4.5,1.06-1.45,2.63-2.42,4.02-3.57s2.67-2.63,2.81-4.42c.18-2.43-1.77-4.46-2.47-6.8-.46-1.53-.36-3.16-.54-4.75-.16-1.49-.65-3.44-2.19-4.03-.84-.32-1.76-.33-2.63-.55-2.76-.71-4.6-3.35-7.23-4.45-1.69-.71-3.6-.72-5.4-.36-1.69.33-3.41,1.43-5.11,1.46-1.69.03-3.12-.14-4.75.55Z"/>
  <path class="cls-15" d="m382.82,427.62c-.71,13.29-12.6,22.91-18.49,34.85-5.15,10.43-5.6,22.46-5.94,34.08"/>
  <path class="cls-17" d="m303.78,624.72c-1.3-3.89-1.21-7.84-1.9-11.9-1.66-9.76-2.75-19.61-3.62-29.47-.42-4.71-.16-9.96-1.21-14.56-.83-3.65-1.08-7.12-1.3-10.89-1.06-18.17-4.2-36.21-9.31-53.67.21,1.26.41,2.52.59,3.79,1.99,14.04,3.02,28.2,3.68,42.36.03.58.06,1.17.08,1.75.33,7.29.57,14.58.8,21.87.46,14.34.85,28.42.8,42.8-.03,10.69-.42,21.38-.94,32.06h15.61c-.24-3.21-.68-6.43-1.12-9.61-.65-4.65-.67-10.08-2.16-14.54Z"/>
  <path class="cls-6" d="m386.52,328.58c-.97-6.02-1.39-12-2.88-17.95-2.92-11.63-8.22-22.98-17.31-31.07-3.36-2.99-7.96-4.44-11.24-7.22.41,2.22.72,4.46.59,6.8-.23,4.31-1.42,8.54-3.34,12.39-3.8,7.64-10.45,13.97-18.43,17.07-1.57.61-3.13,1.32-4.72,1.87-2.85,1-6.14,1.39-9.14,1.23-3.05-.16-6.28-.77-9.24-1.55-4.91-1.31-9.01-2.65-13.17-5.71-6.29-4.62-11.16-11.36-13.13-18.96-.77-2.97-.82-5.26-.24-8.18.27-1.35.35-2.74.35-4.14-.96.99-3.04,2.15-4.21,3.2-7.39,6.67-11.13,18.07-14.5,27.16-6.21,16.72-7.49,34.58-7.64,52.27-.15,18.05.97,36.01,3.8,53.88,1.52,9.58,3.5,19.09,6.03,28.45,6.05,22.4,14.55,43.15,18.38,66.1,5.12,17.46,8.26,35.5,9.31,53.67.22,3.78.47,7.25,1.3,10.89,1.05,4.6.8,9.85,1.21,14.56.87,9.86,1.96,19.71,3.62,29.47.69,4.06.6,8,1.9,11.9,1.49,4.46,1.51,9.88,2.16,14.54.44,3.18.88,6.39,1.12,9.61h57.37c.14-14.85.33-29.82-.99-44.54-1.11-12.38-1.78-24.83-1.45-37.26.28-10.22-.54-20.58-.19-30.87.38-11.51,2.86-22.96,3.33-34.52.35-8.62,1.84-16.96,3.66-25.39,2.09-9.67,1.96-19.63,4.6-29.28,2.67-9.74,5.51-19.42,7.44-29.4,1.76-9.07,2.84-18.22,4.7-27.25,4.22-20.46,4.32-41.17.98-61.79Z"/>
  <path d="m330.24,65.29c-.26,0-.52-.1-.72-.3-.4-.4-.41-1.05,0-1.46,7.49-7.59,10.94-17.57,13.33-26.34.15-.55.72-.87,1.26-.72.55.15.87.72.72,1.26-4.38,16.08-9.46,22.79-13.85,27.24-.2.2-.47.31-.73.31Z"/>
  <path d="m346.78,65.69c-.43,0-.82-.27-.97-.69-.19-.54.09-1.12.63-1.31,5.47-1.92,10.38-4.76,14.6-8.46.43-.37,1.08-.33,1.45.1s.33,1.08-.09,1.45c-4.42,3.87-9.56,6.85-15.28,8.86-.11.04-.23.06-.34.06Z"/>
  <path d="m299.52,55.71c-.47,0-.9-.33-1.01-.81-2.31-10.72-8.32-18.83-16.49-22.25-.52-.22-.77-.82-.55-1.35.22-.52.82-.77,1.35-.55,8.8,3.68,15.25,12.33,17.71,23.71.12.56-.23,1.1-.79,1.22-.07.02-.15.02-.22.02Z"/>
  <path d="m264.85,55.22c-.17,0-.34-.04-.5-.13-6.22-3.46-12.18-4.81-17.72-4.04-.57.08-1.08-.31-1.16-.88-.08-.56.31-1.08.88-1.16,6-.84,12.39.6,19.01,4.27.5.28.68.9.4,1.4-.19.34-.54.53-.9.53Z"/>
  <path class="cls-5" d="m321.98,171.42c-1.08,0-2.23-.26-3.42-.78-2.04-.89-3.54-1.84-4.72-2.99-.41-.4-.42-1.05-.02-1.46.4-.41,1.05-.42,1.46-.02,1,.97,2.31,1.79,4.12,2.58,1.2.52,2.31.71,3.29.55.75-.12,1.51-.35,2.25-.7.98-.45,3.94-1.82,1.99-8.21-.64-2.11-1.4-4.23-2.14-6.28-.67-1.87-1.36-3.81-1.97-5.75-.35-1.12-.45-2.21-.54-3.27-.04-.51-.09-.98-.15-1.47-.53-3.75-.2-7.62.23-11.25.07-.56.58-.97,1.14-.9.56.07.97.58.9,1.14-.42,3.49-.73,7.2-.24,10.72.08.54.12,1.07.17,1.58.09.99.17,1.92.45,2.83.6,1.9,1.28,3.82,1.95,5.67.74,2.07,1.51,4.22,2.17,6.37,2.04,6.7-.56,9.51-3.1,10.68-.91.42-1.86.72-2.79.87-.33.05-.67.08-1.02.08Z"/>
  <path class="cls-5" d="m231.03,177.71c-.38,0-.74-.21-.92-.57-.53-1.06-1.54-1.75-2.62-2.47-1.24-.84-2.65-1.79-3.32-3.46-.69-1.72-.22-3.25.2-4.59.18-.58.35-1.13.43-1.68.08-.55-.1-1.04-.33-1.67-.11-.3-.22-.61-.32-.95-.3-1.1-.57-1.76-1.21-2.28-1.64-1.34-3.11-2.01-4.13-1.87-.54.07-.99.38-1.38.93-.33.46-.97.58-1.43.25-.46-.33-.58-.97-.25-1.43.73-1.03,1.67-1.64,2.79-1.79,1.64-.22,3.56.56,5.71,2.32,1.17.96,1.57,2.17,1.89,3.33.07.26.17.52.26.79.28.75.59,1.61.43,2.67-.1.71-.31,1.36-.5,2-.38,1.21-.67,2.17-.26,3.22.43,1.08,1.42,1.75,2.56,2.52,1.19.8,2.53,1.71,3.3,3.25.25.51.05,1.13-.46,1.38-.15.07-.31.11-.46.11Z"/>
  <path class="cls-5" d="m397.4,178.93c-.16,0-.31-.04-.46-.11-.51-.25-.71-.87-.46-1.38.79-1.58,2.18-2.52,3.4-3.35,1.18-.8,2.21-1.49,2.66-2.62.44-1.09.11-2.13-.26-3.34-.2-.65-.41-1.32-.52-2.06-.16-1.09.16-1.97.44-2.74.1-.28.2-.55.27-.82.33-1.19.75-2.44,1.94-3.42,2.21-1.81,4.19-2.62,5.87-2.39,1.15.16,2.11.77,2.86,1.83.33.46.22,1.11-.25,1.43-.46.33-1.11.22-1.43-.25-.41-.58-.88-.9-1.45-.98-1.06-.14-2.59.54-4.29,1.94-.67.55-.95,1.23-1.26,2.37-.1.35-.21.67-.33.98-.24.65-.42,1.16-.34,1.74.08.57.26,1.14.45,1.74.43,1.38.92,2.95.21,4.72-.68,1.71-2.07,2.65-3.41,3.56-1.11.75-2.16,1.46-2.71,2.56-.18.36-.54.57-.92.57Z"/>
  <path class="cls-5" d="m198.02,298.52c-.24,0-.41-.05-.57-.11-.06-.02-.07-.02-.12-.03-.57-.04-.99-.54-.95-1.11.04-.57.54-.99,1.11-.95.25.02.42.07.57.11.1-.02.2-.03.3-.02,2.73.21,5.11-3.2,5.97-5.39,1.43-3.64,1.83-7.85,1.19-12.53-.54-3.95-1.25-8.05-3.4-10.83-.4-.52-.81-1.05-1.22-1.58-.35-.45-.26-1.1.19-1.44.45-.35,1.1-.26,1.44.19.41.53.81,1.06,1.21,1.57,2.46,3.18,3.23,7.58,3.81,11.81.69,5.03.25,9.59-1.31,13.56-.64,1.64-1.7,3.26-2.91,4.46-1.55,1.54-3.26,2.31-4.96,2.24-.13.02-.25.03-.35.03Z"/>
  <path class="cls-5" d="m162.34,251.94c-.31,0-.62-.14-.82-.41-.34-.45-.25-1.1.2-1.44,3.37-2.53,7.59-4.14,11.88-4.51.56-.05,1.07.37,1.11.94.05.57-.37,1.07-.94,1.11-3.91.34-7.75,1.8-10.82,4.1-.19.14-.4.21-.62.21Z"/>
  <path class="cls-5" d="m183.3,314.17c-1.4,0-2.71-.37-3.64-1.38-.06-.07-.32-.18-.48-.26-.56-.26-1.49-.69-1.58-1.77-.05-.57.37-1.06.94-1.11.52-.04.98.31,1.09.8.1.06.29.15.42.21.37.17.79.37,1.12.72,1.54,1.65,5.9.15,7.8-1.12,5.32-3.55,9.16-12.35,5.8-21.68-.4-1.12-1.18-2.22-1.94-3.28-.3-.42-.6-.85-.89-1.28-4.47-6.82-8.9-10.73-13.14-11.63-4.56-.97-9.65-.2-12.28.35-.56.11-1.1-.24-1.22-.8-.12-.56.24-1.1.8-1.22,2.79-.58,8.2-1.39,13.12-.35,4.86,1.03,9.58,5.13,14.43,12.52.26.4.54.79.84,1.22.84,1.18,1.7,2.4,2.2,3.78,2.77,7.7,1.4,18.76-6.6,24.09-1.4.93-4.25,2.19-6.81,2.19Z"/>
  <path class="cls-5" d="m169.47,325.1c-1.87,0-3.64-.88-4.94-2.57-1.05-1.37-1.75-3.09-1.86-4.59-.05-.65.01-1.3.07-1.93.09-.97.17-1.89-.16-2.6-.83-1.79-2.36-3.03-3.99-4.34l-.54-.44c-.44-.36-.51-1.01-.15-1.45.36-.44,1.01-.51,1.45-.15l.53.43c1.73,1.4,3.53,2.85,4.56,5.08.56,1.22.45,2.51.34,3.66-.05.57-.1,1.11-.07,1.59.08,1.1.63,2.44,1.44,3.49,1.52,1.99,3.82,2.32,5.99.88,3.78-2.52,5.3-7.79,5.47-11.88.09-2.1-.24-4.36-.96-6.72-.76-2.46-2.78-4.51-4.73-6.49l-.47-.48c-2.29-2.34-4.82-4.03-7.52-5.04-.53-.2-.8-.79-.6-1.32.2-.53.79-.8,1.32-.6,2.99,1.12,5.77,2.98,8.27,5.53l.47.47c2.03,2.06,4.33,4.39,5.23,7.33.79,2.58,1.14,5.07,1.05,7.41-.24,5.96-2.63,11.01-6.39,13.51-1.24.83-2.56,1.23-3.83,1.23Z"/>
  <path class="cls-5" d="m181.83,327.21c-.1,0-.2-.01-.3-.04-.54-.17-.85-.74-.69-1.28,1.51-4.97,3.3-8.68,5.81-12.03.45-.6.85-1.15,1.25-1.69.58-.79,1.13-1.55,1.79-2.4.35-.45.99-.54,1.44-.19.45.35.54.99.19,1.44-.64.84-1.19,1.59-1.77,2.37-.4.55-.81,1.11-1.26,1.71-2.36,3.15-4.05,6.67-5.49,11.4-.13.44-.54.73-.98.73Z"/>
  <path class="cls-16" d="m171.14,577.4c-.08,0-.16,0-.24-.03-.55-.13-.89-.69-.76-1.24,1.21-5.06,2.16-10.21,3.08-15.19.45-2.41.87-4.69,1.31-6.96,1.49-7.56,3.07-15.26,4.59-22.7,4.63-22.67,9.43-46.11,12.65-69.27.5-3.6,1.13-6.78,1.93-9.72.72-2.65,1.76-5.23,2.76-7.72,1.74-4.31,3.38-8.39,3.57-12.91.21-4.97-.53-9.91-1.24-14.69-.93-6.24-1.9-12.7-.84-19.48.79-5.06,2.25-9.41,3.67-13.63,2.79-8.27,5.19-15.42,1.92-25.56-.15-.48-.27-.96-.39-1.42-.34-1.36-.63-2.54-1.62-3.08-.5-.27-.68-.9-.41-1.4.27-.5.9-.68,1.4-.41,1.79.97,2.24,2.79,2.64,4.39.11.45.22.88.35,1.29,3.49,10.79.86,18.59-1.92,26.85-1.39,4.13-2.83,8.41-3.59,13.29-1.01,6.47-.07,12.77.84,18.86.73,4.87,1.48,9.92,1.26,15.08-.21,4.88-1.99,9.31-3.72,13.59-.98,2.44-1.99,4.95-2.68,7.49-.78,2.86-1.39,5.96-1.88,9.46-3.23,23.23-8.03,46.7-12.67,69.4-1.52,7.44-3.09,15.13-4.58,22.69-.45,2.26-.87,4.53-1.31,6.94-.92,5-1.88,10.18-3.1,15.29-.11.47-.53.79-1,.79Z"/>
  <path class="cls-16" d="m169.28,422.15c-.26,0-.53-.1-.73-.3-8.76-8.79-16.57-18.51-25.61-30.39-.34-.45-.26-1.1.2-1.44.45-.34,1.1-.26,1.44.2,8.98,11.82,16.75,21.47,25.43,30.18.4.4.4,1.05,0,1.46-.2.2-.46.3-.73.3Z"/>
  <path class="cls-16" d="m152.62,445.47c-4.84,0-9.98-.91-15.69-2.75-.54-.17-.84-.75-.66-1.3.17-.54.76-.84,1.3-.66,8.71,2.81,15.99,3.37,22.9,1.76.55-.13,1.11.22,1.24.77s-.22,1.11-.77,1.24c-2.7.63-5.45.94-8.3.94Z"/>
  <path class="cls-16" d="m461.38,650.27h0c-.57,0-1.03-.47-1.02-1.04.06-7.07-.56-14.38-1.16-21.44-.52-6.13-1.06-12.48-1.15-18.64-.16-11.35-.73-22.88-1.29-34.04-.2-4.02-.41-8.17-.59-12.26-1.09-24.2-2.75-47.21-5.05-70.35-2.43-24.4-4.5-48.26-3.02-72.02,1.07-17.19,4.85-35.54,11.58-56.09.18-.54.76-.84,1.3-.66.54.18.84.76.66,1.3-6.67,20.39-10.42,38.57-11.48,55.58-1.47,23.6.59,47.38,3.01,71.69,2.31,23.18,3.97,46.23,5.06,70.47.18,4.08.39,8.24.59,12.25.56,11.18,1.13,22.73,1.29,34.11.09,6.09.62,12.39,1.14,18.49.61,7.11,1.23,14.46,1.17,21.63,0,.57-.47,1.02-1.03,1.02Z"/>
  <path class="cls-16" d="m492.82,610.5c-.29,0-.58-.12-.79-.37-.37-.43-.31-1.08.12-1.45,10.91-9.19,18.55-18.37,22.71-27.27.24-.51.85-.74,1.37-.5.51.24.74.85.5,1.37-4.29,9.17-12.11,18.59-23.25,27.97-.19.16-.43.24-.66.24Z"/>
  <path class="cls-3" d="m154.26,163.69c-.14,0-.29-.03-.43-.08-.45-.18-.9-.39-1.34-.6-.64-.3-1.23-.58-1.84-.78-3.22-1.06-6.44-2.43-9.56-3.75l-.9-.38c-.59-.25-.86-.93-.61-1.52.25-.59.93-.86,1.52-.61l.9.38c3.07,1.31,6.25,2.66,9.38,3.68.74.24,1.43.57,2.1.88.43.2.83.39,1.22.55.59.24.88.91.64,1.51-.18.45-.62.73-1.07.73Z"/>
  <path class="cls-3" d="m155.92,158.25c-.31,0-.59-.1-.77-.17l-.1-.03c-.45-.15-.83-.29-1.16-.43l-.26-.11c-.68-.28-1.16-.48-1.84-.64-3.06-.72-6.12-1.73-9.07-2.7-.97-.32-1.94-.64-2.9-.94-.61-.19-.95-.85-.75-1.46.19-.61.85-.95,1.46-.75.97.31,1.94.63,2.92.95,2.91.96,5.92,1.95,8.88,2.65.86.2,1.48.46,2.19.75l.26.11c.29.12.62.24,1.02.37.03.01.06.02.1.03.5-.03.99.28,1.16.78.15.45.04.92-.29,1.25-.26.26-.56.34-.83.34Zm-1.07-.83s0,0,0,0c0,0,0,0,0,0Z"/>
  <path class="cls-3" d="m156.28,153.71c-.55,0-1.01-.31-1.28-.49-.06-.04-.11-.08-.17-.11-1.68-.85-3.48-1.34-5.39-1.86-.7-.19-1.43-.39-2.15-.61-.51-.15-5.19-1.74-7.18-2.61-.59-.26-.85-.94-.6-1.52.26-.59.94-.85,1.52-.6,1.87.82,6.45,2.37,6.92,2.51.69.21,1.4.4,2.09.59,1.93.53,3.93,1.07,5.83,2.03.15.08.29.17.41.25.03.02.08.05.12.08.47,0,.91.31,1.07.78.21.61-.12,1.26-.72,1.47-.17.06-.33.08-.48.08Z"/>
  <path class="cls-13" d="m150.44,146.07s0,0,0,0c-.64,0-1.15-.53-1.15-1.17.02-2.45.57-4.89,1.1-7.24.31-1.35.59-2.62.79-3.9.16-1.02.3-2.05.44-3.09.57-4.09,1.15-8.33,2.59-12.25.11-.29.21-.57.32-.84-.83-.15-1.65-.44-2.34-.68-1.96-.69-3.66-1.86-5-3.38-.33.33-.69.62-1.02.89-.2.16-.39.33-.58.49-.82.74-1.81,1.56-3.05,1.99-.69.24-1.51.53-2.34.68.11.27.22.55.33.84,1.44,3.93,2.02,8.16,2.59,12.25.14,1.04.29,2.07.44,3.09.24,1.56.59,3.15.93,4.68.45,2.05.92,4.18,1.15,6.32.07.64-.39,1.21-1.03,1.27-.64.07-1.21-.39-1.27-1.03-.21-2.02-.67-4.08-1.11-6.07-.35-1.57-.7-3.2-.95-4.83-.16-1.03-.3-2.08-.45-3.13-.55-3.97-1.12-8.08-2.47-11.78-.19-.51-.38-1-.59-1.45-1.89.07-4.21-.03-5.47-1.42-.49-.54-1.02-1.51-.77-3.07.26-1.6,1.15-2.15,1.66-2.34.95-.35,2.1-.03,3.14.86,1.1.95,2.03,2.11,2.84,3.57.03,0,.05,0,.08,0,.78-.04,1.71-.37,2.54-.65.84-.29,1.58-.92,2.27-1.54.2-.18.42-.36.64-.54.41-.34.81-.67,1.12-1.02-.77-1.32-1.33-2.8-1.62-4.41-.37-2.03-.14-4.78,1.76-5.82.63-.35,1.34-.35,1.93,0,1.66.96,1.82,4.27,1.82,4.3.03,1.62-.15,3.86-1.14,5.88,1.13,1.44,2.63,2.54,4.39,3.16.82.29,1.75.62,2.54.65.03,0,.05,0,.08,0,.81-1.46,1.74-2.62,2.83-3.57,1.04-.9,2.19-1.21,3.14-.86.51.19,1.4.74,1.66,2.34.25,1.56-.28,2.53-.77,3.07-1.26,1.39-3.58,1.49-5.47,1.42-.2.45-.4.94-.59,1.45-1.35,3.69-1.92,7.8-2.47,11.78-.15,1.05-.29,2.09-.45,3.13-.21,1.36-.52,2.73-.82,4.06-.5,2.23-1.03,4.54-1.04,6.74,0,.64-.52,1.15-1.16,1.15Zm10.29-32.98c-.06,0-.39.09-.81.45-.62.53-1.18,1.16-1.68,1.91,1.04-.03,2.05-.19,2.48-.67.08-.09.32-.36.2-1.15-.07-.43-.19-.54-.19-.54h0Zm-26.74.01s-.1.13-.16.53c-.13.79.12,1.06.2,1.15.43.48,1.44.64,2.48.67-.51-.74-1.07-1.37-1.69-1.91-.42-.36-.74-.45-.83-.44Zm12.87-9.53c-.49.57-.61,2.02-.39,3.2.14.74.34,1.45.6,2.13.28-1.14.34-2.27.32-3.19-.01-.53-.26-1.63-.53-2.14Z"/>
  <path class="cls-16" d="m272.19,510.36c-.5,0-.94-.37-1.02-.88-1.59-10.82-4.74-21.17-7.61-29.87-.99-3.01-2.19-6.11-3.35-9.11-2.5-6.46-5.08-13.13-6.06-19.93-.08-.56.31-1.08.87-1.17.56-.08,1.08.31,1.17.87.94,6.57,3.48,13.13,5.94,19.48,1.17,3.02,2.38,6.15,3.39,9.21,2.89,8.78,6.07,19.23,7.69,30.21.08.56-.31,1.09-.87,1.17-.05,0-.1.01-.15.01Z"/>
  <path class="cls-16" d="m465.49,357.54c-.13,0-.26-.02-.39-.08-.53-.22-.78-.82-.56-1.34,1.67-4.09,4.05-7.83,6.34-11.44,1.55-2.45,3.16-4.97,4.5-7.55.26-.5.89-.7,1.39-.44.5.26.7.88.44,1.39-1.38,2.65-3.01,5.22-4.59,7.7-2.25,3.54-4.57,7.19-6.17,11.12-.16.4-.55.64-.95.64Z"/>
</svg>