<?xml version="1.0" encoding="UTF-8"?>
<svg xmlns="http://www.w3.org/2000/svg" xmlns:xlink="http://www.w3.org/1999/xlink" viewBox="0 0 667.97 551.69">
  <defs>
    <style>
      .cls-1 {
        filter: url(#drop-shadow-7);
      }

      .cls-2 {
        fill: url(#Degradado_sin_nombre_152-2);
        filter: url(#drop-shadow-4);
      }

      .cls-3, .cls-4, .cls-5 {
        fill: #fff;
      }

      .cls-6 {
        fill: url(#Degradado_sin_nombre_152-5);
        filter: url(#drop-shadow-10);
      }

      .cls-7 {
        fill: url(#Degradado_sin_nombre_157);
      }

      .cls-8 {
        fill: url(#Degradado_sin_nombre_155);
      }

      .cls-9 {
        fill: url(#Degradado_sin_nombre_153);
        filter: url(#drop-shadow-1);
      }

      .cls-10 {
        fill: #ffc700;
      }

      .cls-11 {
        isolation: isolate;
      }

      .cls-12 {
        fill: #1e9aff;
      }

      .cls-13 {
        fill: #ebebf2;
      }

      .cls-14 {
        fill: #4b4ba0;
      }

      .cls-15 {
        fill: #3d3d89;
      }

      .cls-16 {
        fill: url(#Degradado_sin_nombre_152-3);
        filter: url(#drop-shadow-6);
      }

      .cls-17 {
        fill: url(#Degradado_sin_nombre_169);
      }

      .cls-4 {
        filter: url(#drop-shadow-5);
      }

      .cls-18 {
        fill: url(#Degradado_sin_nombre_154-2);
      }

      .cls-19 {
        fill: #a7c8ff;
      }

      .cls-19, .cls-20 {
        mix-blend-mode: multiply;
      }

      .cls-21 {
        filter: url(#drop-shadow-2);
      }

      .cls-22 {
        fill: url(#Degradado_sin_nombre_152);
        filter: url(#drop-shadow-3);
      }

      .cls-20 {
        fill: url(#Degradado_sin_nombre_156);
      }

      .cls-5 {
        opacity: .15;
      }

      .cls-23 {
        filter: url(#drop-shadow-9);
      }

      .cls-24 {
        fill: url(#Degradado_sin_nombre_152-4);
        filter: url(#drop-shadow-8);
      }

      .cls-25 {
        fill: url(#Degradado_sin_nombre_154);
      }
    </style>
    <linearGradient id="Degradado_sin_nombre_157" data-name="Degradado sin nombre 157" x1="275.9" y1="430.91" x2="369.45" y2="524.46" gradientUnits="userSpaceOnUse">
      <stop offset=".23" stop-color="#a7c8ff"/>
      <stop offset=".45" stop-color="#aacaff"/>
      <stop offset=".67" stop-color="#b6d2ff"/>
      <stop offset=".89" stop-color="#cae0ff"/>
      <stop offset="1" stop-color="#d8e9ff"/>
    </linearGradient>
    <linearGradient id="Degradado_sin_nombre_155" data-name="Degradado sin nombre 155" x1="149.54" y1="163.97" x2="495.81" y2="510.24" gradientUnits="userSpaceOnUse">
      <stop offset="0" stop-color="#d8e9ff"/>
      <stop offset="1" stop-color="#a7c8ff"/>
    </linearGradient>
    <linearGradient id="Degradado_sin_nombre_154" data-name="Degradado sin nombre 154" x1="165.96" y1="120.63" x2="480.19" y2="434.86" gradientUnits="userSpaceOnUse">
      <stop offset="0" stop-color="#562bff"/>
      <stop offset="1" stop-color="#7da5ff"/>
    </linearGradient>
    <linearGradient id="Degradado_sin_nombre_156" data-name="Degradado sin nombre 156" x1="313.35" y1="424.82" x2="332" y2="443.46" gradientUnits="userSpaceOnUse">
      <stop offset="0" stop-color="#a7c8ff"/>
      <stop offset="1" stop-color="#d8e9ff"/>
    </linearGradient>
    <linearGradient id="Degradado_sin_nombre_169" data-name="Degradado sin nombre 169" x1="267.58" y1="442.77" x2="377.77" y2="552.96" gradientUnits="userSpaceOnUse">
      <stop offset="0" stop-color="#a7c8ff"/>
      <stop offset="1" stop-color="#73abff"/>
    </linearGradient>
    <linearGradient id="Degradado_sin_nombre_154-2" data-name="Degradado sin nombre 154" x1="447.61" y1="344.07" x2="604.62" y2="501.08" xlink:href="#Degradado_sin_nombre_154"/>
    <linearGradient id="Degradado_sin_nombre_153" data-name="Degradado sin nombre 153" x1="482.95" y1="379.85" x2="569.28" y2="466.17" gradientUnits="userSpaceOnUse">
      <stop offset="0" stop-color="#35ffff" stop-opacity=".5"/>
      <stop offset="1" stop-color="#35e6bb"/>
    </linearGradient>
    <filter id="drop-shadow-1" filterUnits="userSpaceOnUse">
      <feOffset dx="0" dy="8.89"/>
      <feGaussianBlur result="blur" stdDeviation="5.33"/>
      <feFlood flood-color="#1172d5" flood-opacity=".4"/>
      <feComposite in2="blur" operator="in"/>
      <feComposite in="SourceGraphic"/>
    </filter>
    <filter id="drop-shadow-2" filterUnits="userSpaceOnUse">
      <feOffset dx="0" dy="3.75"/>
      <feGaussianBlur result="blur-2" stdDeviation="3.75"/>
      <feFlood flood-color="#1e85ff" flood-opacity=".4"/>
      <feComposite in2="blur-2" operator="in"/>
      <feComposite in="SourceGraphic"/>
    </filter>
    <linearGradient id="Degradado_sin_nombre_152" data-name="Degradado sin nombre 152" x1="196.04" y1="103.43" x2="419.59" y2="326.98" gradientUnits="userSpaceOnUse">
      <stop offset="0" stop-color="#35c9e2" stop-opacity=".5"/>
      <stop offset="1" stop-color="#35e6bb"/>
    </linearGradient>
    <filter id="drop-shadow-3" filterUnits="userSpaceOnUse">
      <feOffset dx="0" dy="8.89"/>
      <feGaussianBlur result="blur-3" stdDeviation="5.33"/>
      <feFlood flood-color="#1e85ff" flood-opacity=".4"/>
      <feComposite in2="blur-3" operator="in"/>
      <feComposite in="SourceGraphic"/>
    </filter>
    <linearGradient id="Degradado_sin_nombre_152-2" data-name="Degradado sin nombre 152" x1="31.32" y1="198.72" x2="134.88" y2="302.28" xlink:href="#Degradado_sin_nombre_152"/>
    <filter id="drop-shadow-4" filterUnits="userSpaceOnUse">
      <feOffset dx="0" dy="8.89"/>
      <feGaussianBlur result="blur-4" stdDeviation="5.33"/>
      <feFlood flood-color="#1e85ff" flood-opacity=".4"/>
      <feComposite in2="blur-4" operator="in"/>
      <feComposite in="SourceGraphic"/>
    </filter>
    <filter id="drop-shadow-5" filterUnits="userSpaceOnUse">
      <feOffset dx="0" dy="3.75"/>
      <feGaussianBlur result="blur-5" stdDeviation="3.75"/>
      <feFlood flood-color="#1e85ff" flood-opacity=".4"/>
      <feComposite in2="blur-5" operator="in"/>
      <feComposite in="SourceGraphic"/>
    </filter>
    <linearGradient id="Degradado_sin_nombre_152-3" data-name="Degradado sin nombre 152" x1="139.3" y1="321.67" x2="249.92" y2="432.29" xlink:href="#Degradado_sin_nombre_152"/>
    <filter id="drop-shadow-6" filterUnits="userSpaceOnUse">
      <feOffset dx="0" dy="8.89"/>
      <feGaussianBlur result="blur-6" stdDeviation="5.33"/>
      <feFlood flood-color="#1e85ff" flood-opacity=".4"/>
      <feComposite in2="blur-6" operator="in"/>
      <feComposite in="SourceGraphic"/>
    </filter>
    <filter id="drop-shadow-7" filterUnits="userSpaceOnUse">
      <feOffset dx="0" dy="3.75"/>
      <feGaussianBlur result="blur-7" stdDeviation="3.75"/>
      <feFlood flood-color="#1e85ff" flood-opacity=".4"/>
      <feComposite in2="blur-7" operator="in"/>
      <feComposite in="SourceGraphic"/>
    </filter>
    <linearGradient id="Degradado_sin_nombre_152-4" data-name="Degradado sin nombre 152" x1="480.93" y1="72.01" x2="626.84" y2="217.92" xlink:href="#Degradado_sin_nombre_152"/>
    <filter id="drop-shadow-8" filterUnits="userSpaceOnUse">
      <feOffset dx="0" dy="8.89"/>
      <feGaussianBlur result="blur-8" stdDeviation="5.33"/>
      <feFlood flood-color="#1e85ff" flood-opacity=".4"/>
      <feComposite in2="blur-8" operator="in"/>
      <feComposite in="SourceGraphic"/>
    </filter>
    <filter id="drop-shadow-9" filterUnits="userSpaceOnUse">
      <feOffset dx="0" dy="3.75"/>
      <feGaussianBlur result="blur-9" stdDeviation="3.75"/>
      <feFlood flood-color="#1e85ff" flood-opacity=".4"/>
      <feComposite in2="blur-9" operator="in"/>
      <feComposite in="SourceGraphic"/>
    </filter>
    <linearGradient id="Degradado_sin_nombre_152-5" data-name="Degradado sin nombre 152" x1="31.32" y1="65.18" x2="134.88" y2="168.74" xlink:href="#Degradado_sin_nombre_152"/>
    <filter id="drop-shadow-10" filterUnits="userSpaceOnUse">
      <feOffset dx="0" dy="8.89"/>
      <feGaussianBlur result="blur-10" stdDeviation="5.33"/>
      <feFlood flood-color="#1e85ff" flood-opacity=".4"/>
      <feComposite in2="blur-10" operator="in"/>
      <feComposite in="SourceGraphic"/>
    </filter>
  </defs>
  <g class="cls-11">
    <g id="Layer_1" data-name="Layer 1">
      <g>
        <path class="cls-13" d="m544.14,98.98c0-5.09-.51-10.06-1.49-14.87l24.87-14.36-23.29-40.34-24.79,14.31c-7.5-6.72-16.38-11.93-26.17-15.16V0h-46.58v28.57c-4.35,1.44-8.52,3.26-12.48,5.44-.47.26-.93.54-1.4.8-.46.27-.94.53-1.39.81-3.86,2.33-7.53,5.04-10.95,8.09l-24.74-14.29-23.29,40.34,24.74,14.29c-.93,4.49-1.44,9.01-1.53,13.52-.01.55,0,1.09,0,1.64,0,.53,0,1.06,0,1.58.09,4.51.6,9.04,1.53,13.52l-24.74,14.29,23.29,40.34,24.74-14.29c7.69,6.85,16.64,11.94,26.21,15.08v28.62h46.58v-28.71c4.65-1.56,9.21-3.59,13.62-6.14,4.52-2.61,8.65-5.62,12.39-8.97l24.94,14.4,23.29-40.34-24.94-14.4c1.02-4.91,1.57-10,1.57-15.22Zm-43.66,32.83c-.2.19-.4.37-.61.55-.8.73-1.63,1.41-2.48,2.07-.4.31-.8.61-1.21.91-.69.5-1.4.99-2.12,1.45-.58.37-1.16.72-1.75,1.06-.59.34-1.19.67-1.8.98-.76.39-1.53.77-2.32,1.12-.46.21-.92.4-1.38.59-1,.4-2.01.78-3.04,1.11-.26.09-.52.17-.78.25-4.12,1.25-8.48,1.93-13.01,1.93-24.77,0-44.86-20.08-44.86-44.86,0-6.07,1.22-11.84,3.4-17.12.1-.25.21-.49.32-.74.4-.93.85-1.83,1.31-2.73.3-.56.6-1.13.92-1.68.32-.55.65-1.1.99-1.64.54-.85,1.1-1.69,1.7-2.5.16-.22.32-.43.48-.65,3.48-4.53,7.87-8.47,13.13-11.51,21.46-12.39,48.89-5.04,61.28,16.42,2.26,3.92,3.85,8.04,4.83,12.23.06.27.12.53.17.8.23,1.06.41,2.13.56,3.19.07.5.13.99.18,1.49.09.86.15,1.71.19,2.57.03.68.05,1.36.05,2.04,0,.69-.02,1.37-.05,2.05-.04.85-.1,1.71-.19,2.56-.05.5-.11,1-.18,1.5-.15,1.06-.33,2.12-.55,3.18-.06.27-.11.54-.18.81-.98,4.19-2.57,8.31-4.83,12.23-2.26,3.92-5.04,7.36-8.18,10.3Z"/>
        <path class="cls-13" d="m654.8,240.83c0-2.87-.29-5.67-.84-8.38l14.02-8.09-13.13-22.74-13.98,8.07c-4.23-3.79-9.24-6.72-14.75-8.55v-16.11h-26.26v16.11c-2.45.81-4.81,1.84-7.03,3.07-.27.14-.52.3-.79.45-.26.15-.53.3-.79.46-2.18,1.31-4.24,2.84-6.17,4.56l-13.95-8.05-13.13,22.74,13.95,8.05c-.52,2.53-.81,5.08-.86,7.62,0,.31,0,.62,0,.92,0,.3,0,.6,0,.89.05,2.54.34,5.1.86,7.62l-13.95,8.05,13.13,22.74,13.95-8.05c4.34,3.86,9.38,6.73,14.78,8.5v16.14h26.26v-16.19c2.62-.88,5.19-2.03,7.68-3.46,2.55-1.47,4.88-3.17,6.99-5.06l14.06,8.12,13.13-22.74-14.06-8.12c.58-2.77.88-5.64.88-8.58Zm-24.61,18.51c-.11.11-.23.21-.34.31-.45.41-.92.8-1.4,1.17-.22.17-.45.34-.68.51-.39.28-.79.56-1.2.82-.32.21-.65.41-.99.6-.33.19-.67.38-1.01.55-.43.22-.86.43-1.31.63-.26.12-.52.23-.78.33-.56.23-1.13.44-1.71.63-.15.05-.29.1-.44.14-2.32.7-4.78,1.09-7.33,1.09-13.97,0-25.29-11.32-25.29-25.29,0-3.42.69-6.68,1.92-9.65.06-.14.12-.28.18-.42.23-.52.48-1.03.74-1.54.17-.32.34-.63.52-.95.18-.31.37-.62.56-.92.31-.48.62-.95.96-1.41.09-.12.18-.24.27-.36,1.96-2.55,4.44-4.78,7.4-6.49,12.1-6.98,27.56-2.84,34.55,9.26,1.28,2.21,2.17,4.53,2.72,6.9.03.15.07.3.1.45.13.6.23,1.2.31,1.8.04.28.07.56.1.84.05.48.09.97.11,1.45.02.38.03.77.03,1.15,0,.39,0,.77-.03,1.16-.02.48-.06.96-.11,1.44-.03.28-.06.57-.1.85-.08.6-.19,1.2-.31,1.79-.03.15-.06.3-.1.46-.55,2.36-1.45,4.68-2.72,6.89-1.28,2.21-2.84,4.15-4.61,5.81Z"/>
        <path class="cls-13" d="m144.1,396.63c-1.44-3.72-3.23-7.21-5.3-10.45l14.12-17.54-28.46-22.9-14.08,17.49c-7.39-2.79-15.36-4.08-23.43-3.68l-8.09-20.89-34.06,13.19,8.09,20.89c-2.77,2.28-5.31,4.8-7.58,7.51-.27.32-.53.65-.79.98-.26.33-.53.65-.79.99-2.17,2.8-4.08,5.82-5.72,9.01l-22.14-3.44-5.61,36.09,22.14,3.44c.59,3.54,1.5,7,2.71,10.32.14.4.31.8.46,1.2.15.39.29.77.45,1.16,1.34,3.28,3,6.44,4.95,9.46l-14.05,17.46,28.46,22.9,14.05-17.46c7.57,2.83,15.55,4.02,23.44,3.61l8.11,20.93,34.06-13.19-8.13-21c2.96-2.45,5.72-5.24,8.22-8.35,2.56-3.19,4.73-6.56,6.52-10.07l22.32,3.47,5.61-36.1-22.32-3.47c-.64-3.88-1.68-7.76-3.16-11.57Zm-22.63,36.37c-.09.19-.19.39-.29.58-.38.76-.79,1.5-1.23,2.22-.2.34-.41.67-.63,1.01-.37.57-.75,1.12-1.14,1.66-.32.43-.64.86-.98,1.27-.34.42-.68.83-1.03,1.23-.45.5-.9.99-1.38,1.47-.28.28-.56.56-.84.83-.61.58-1.25,1.14-1.91,1.67-.17.14-.33.27-.5.4-2.66,2.08-5.66,3.81-8.97,5.1-18.12,7.02-38.49-1.98-45.51-20.1-1.72-4.44-2.46-9.01-2.36-13.49,0-.21.01-.42.02-.63.03-.79.1-1.58.19-2.37.06-.5.12-.99.2-1.49.08-.5.17-.99.26-1.48.16-.77.33-1.54.54-2.31.05-.2.11-.41.17-.61,1.26-4.3,3.36-8.43,6.34-12.13,12.18-15.14,34.33-17.53,49.46-5.35,2.77,2.23,5.09,4.79,7,7.58.12.18.24.35.35.53.47.71.9,1.44,1.31,2.18.19.34.37.69.55,1.04.31.6.6,1.21.87,1.83.21.49.42.98.61,1.48.19.5.38,1.01.55,1.51.21.64.41,1.28.58,1.93.1.38.2.77.3,1.15.19.82.36,1.65.49,2.48.04.21.07.43.1.64.47,3.34.48,6.8-.07,10.31-.54,3.51-1.6,6.81-3.06,9.85Z"/>
        <g>
          <path class="cls-13" d="m321.65,81.95H4.07C1.82,81.95,0,80.13,0,77.88H0C0,75.64,1.82,73.82,4.07,73.82h317.58c2.25,0,4.07,1.82,4.07,4.07h0c0,2.25-1.82,4.07-4.07,4.07Z"/>
          <path class="cls-13" d="m321.65,111.07H4.07C1.82,111.07,0,109.25,0,107H0C0,104.76,1.82,102.94,4.07,102.94h317.58c2.25,0,4.07,1.82,4.07,4.07h0c0,2.25-1.82,4.07-4.07,4.07Z"/>
          <path class="cls-13" d="m321.65,140.19H4.07C1.82,140.19,0,138.37,0,136.13H0C0,133.88,1.82,132.06,4.07,132.06h317.58c2.25,0,4.07,1.82,4.07,4.07h0c0,2.25-1.82,4.07-4.07,4.07Z"/>
          <path class="cls-13" d="m2.56,161.18h320.59c1.41,0,2.56,1.15,2.56,2.56v3.01c0,1.41-1.15,2.56-2.56,2.56H2.56C1.15,169.31,0,168.17,0,166.75v-3.01C0,162.33,1.15,161.18,2.56,161.18Z"/>
          <path class="cls-13" d="m321.65,198.44H4.07C1.82,198.44,0,196.62,0,194.37H0C0,192.12,1.82,190.3,4.07,190.3h317.58c2.25,0,4.07,1.82,4.07,4.07h0c0,2.25-1.82,4.07-4.07,4.07Z"/>
          <path class="cls-13" d="m321.65,227.56H4.07C1.82,227.56,0,225.74,0,223.49H0C0,221.25,1.82,219.42,4.07,219.42h317.58c2.25,0,4.07,1.82,4.07,4.07h0c0,2.25-1.82,4.07-4.07,4.07Z"/>
          <path class="cls-13" d="m321.65,256.68H4.07C1.82,256.68,0,254.86,0,252.61H0C0,250.37,1.82,248.55,4.07,248.55h317.58c2.25,0,4.07,1.82,4.07,4.07h0c0,2.25-1.82,4.07-4.07,4.07Z"/>
          <path class="cls-13" d="m321.65,285.8H4.07C1.82,285.8,0,283.98,0,281.74H0C0,279.49,1.82,277.67,4.07,277.67h317.58c2.25,0,4.07,1.82,4.07,4.07h0c0,2.25-1.82,4.07-4.07,4.07Z"/>
          <path class="cls-13" d="m321.65,314.92H4.07C1.82,314.92,0,313.1,0,310.86H0C0,308.61,1.82,306.79,4.07,306.79h317.58c2.25,0,4.07,1.82,4.07,4.07h0c0,2.25-1.82,4.07-4.07,4.07Z"/>
        </g>
      </g>
      <g>
        <ellipse class="cls-13" cx="322.68" cy="499.35" rx="243.87" ry="23.02"/>
        <g>
          <polygon class="cls-7" points="393.35 500.57 252.01 500.57 276.31 430.49 369.04 430.49 393.35 500.57"/>
          <g>
            <path class="cls-8" d="m96.22,217.29h452.91v233.29c0,8.45-6.86,15.3-15.3,15.3H111.52c-8.45,0-15.3-6.86-15.3-15.3v-233.29h0Z"/>
            <path class="cls-15" d="m111.52,147.61h422.31c8.45,0,15.3,6.86,15.3,15.3v245.44H96.22v-245.44c0-8.45,6.86-15.3,15.3-15.3Z"/>
            <rect class="cls-25" x="114.43" y="172.16" width="417.28" height="211.17"/>
          </g>
          <circle class="cls-20" cx="322.68" cy="434.14" r="13.18"/>
          <path class="cls-17" d="m430.17,500.57h-214.98c0-7.22,5.85-13.06,13.06-13.06h188.85c7.22,0,13.06,5.85,13.06,13.06h0Z"/>
        </g>
      </g>
      <g>
        <ellipse class="cls-13" cx="526.11" cy="537.56" rx="98.82" ry="14.13"/>
        <g>
          <g>
            <rect class="cls-14" x="462.56" y="313.93" width="127.12" height="218.17" rx="8.89" ry="8.89"/>
            <rect class="cls-18" x="462.56" y="329.12" width="127.12" height="186.9"/>
            <rect class="cls-9" x="480.35" y="377.24" width="91.53" height="91.53" rx="8.89" ry="8.89"/>
            <g class="cls-21">
              <path class="cls-3" d="m526.11,458.05c-19.32,0-35.04-15.72-35.04-35.04s15.72-35.04,35.04-35.04,35.04,15.72,35.04,35.04-15.72,35.04-35.04,35.04Zm0-63.6c-15.75,0-28.56,12.81-28.56,28.56s12.81,28.56,28.56,28.56,28.56-12.81,28.56-28.56-12.81-28.56-28.56-28.56Z"/>
              <polygon class="cls-3" points="523.58 436.33 511.33 425.55 516.47 419.71 522.86 425.34 535.05 411.41 540.9 416.52 523.58 436.33"/>
            </g>
          </g>
          <path class="cls-14" d="m542.05,336.53h-31.87c-4.91,0-8.89-3.98-8.89-8.89h49.65c0,4.91-3.98,8.89-8.89,8.89Z"/>
          <path class="cls-5" d="m537.61,329.12h-22.99c-.82,0-1.48-.66-1.48-1.48h0c0-.82.66-1.48,1.48-1.48h22.99c.82,0,1.48.66,1.48,1.48h0c0,.82-.66,1.48-1.48,1.48Z"/>
        </g>
      </g>
      <g>
        <g>
          <rect class="cls-22" x="168.73" y="125.53" width="278.16" height="179.35" rx="8.89" ry="8.89"/>
          <rect class="cls-15" x="182.85" y="139.65" width="249.93" height="151.12"/>
          <g>
            <rect class="cls-10" x="209.49" y="159.84" width="26" height="3.52"/>
            <rect class="cls-10" x="243.72" y="159.84" width="53.2" height="3.52"/>
            <rect class="cls-3" x="220.53" y="174.07" width="26" height="3.52"/>
            <rect class="cls-12" x="254.76" y="174.07" width="152.02" height="3.52"/>
            <rect class="cls-3" x="220.53" y="187.28" width="26" height="3.52"/>
            <rect class="cls-12" x="254.76" y="187.28" width="152.02" height="3.52"/>
            <rect class="cls-3" x="220.53" y="200.48" width="26" height="3.52"/>
            <rect class="cls-12" x="254.76" y="200.48" width="152.02" height="3.52"/>
            <rect class="cls-3" x="220.53" y="213.69" width="26" height="3.52"/>
            <rect class="cls-10" x="209.49" y="227.67" width="26" height="3.52"/>
            <rect class="cls-10" x="243.72" y="227.67" width="53.2" height="3.52"/>
            <rect class="cls-3" x="254.76" y="241.9" width="98.03" height="3.52"/>
            <rect class="cls-3" x="254.76" y="255.11" width="98.03" height="3.52"/>
            <rect class="cls-12" x="237.9" y="255.11" width="8.63" height="3.52"/>
            <rect class="cls-12" x="220.53" y="268.32" width="26" height="3.52"/>
            <rect class="cls-3" x="254.76" y="268.32" width="98.03" height="3.52"/>
            <rect class="cls-3" x="359.84" y="241.9" width="48.04" height="3.52"/>
            <rect class="cls-3" x="359.84" y="255.11" width="48.04" height="3.52"/>
            <rect class="cls-3" x="359.84" y="268.32" width="48.04" height="3.52"/>
            <rect class="cls-12" x="254.76" y="213.69" width="152.02" height="3.52"/>
          </g>
        </g>
        <g>
          <rect class="cls-2" x="28.72" y="196.11" width="108.77" height="108.77" rx="8.89" ry="8.89"/>
          <path class="cls-4" d="m108.17,250.43c0-1.72-.17-3.4-.5-5.02l8.4-4.85-7.87-13.63-8.38,4.84c-2.54-2.27-5.54-4.03-8.84-5.12v-9.66h-15.74v9.66c-1.47.49-2.88,1.1-4.22,1.84-.16.09-.31.18-.47.27-.16.09-.32.18-.47.27-1.31.79-2.54,1.7-3.7,2.73l-8.36-4.83-7.87,13.63,8.36,4.83c-.31,1.52-.49,3.04-.52,4.57,0,.18,0,.37,0,.55,0,.18,0,.36,0,.53.03,1.53.2,3.05.52,4.57l-8.36,4.83,7.87,13.63,8.36-4.83c2.6,2.32,5.62,4.04,8.86,5.1v9.67h15.74v-9.7c1.57-.53,3.11-1.21,4.6-2.08,1.53-.88,2.92-1.9,4.19-3.03l8.43,4.87,7.87-13.63-8.43-4.87c.35-1.66.53-3.38.53-5.14Zm-14.76,11.09c-.07.06-.14.13-.21.19-.27.25-.55.48-.84.7-.13.1-.27.21-.41.31-.23.17-.47.33-.72.49-.19.12-.39.24-.59.36-.2.12-.4.23-.61.33-.26.13-.52.26-.78.38-.16.07-.31.14-.47.2-.34.14-.68.26-1.03.38-.09.03-.18.06-.26.08-1.39.42-2.87.65-4.4.65-8.37,0-15.16-6.79-15.16-15.16,0-2.05.41-4,1.15-5.79.04-.08.07-.17.11-.25.14-.31.29-.62.44-.92.1-.19.2-.38.31-.57.11-.19.22-.37.34-.55.18-.29.37-.57.58-.84.05-.07.11-.15.16-.22,1.18-1.53,2.66-2.86,4.44-3.89,7.25-4.19,16.52-1.7,20.71,5.55.76,1.32,1.3,2.72,1.63,4.13.02.09.04.18.06.27.08.36.14.72.19,1.08.02.17.04.34.06.5.03.29.05.58.07.87.01.23.02.46.02.69,0,.23,0,.46-.02.69-.01.29-.03.58-.06.86-.02.17-.04.34-.06.51-.05.36-.11.72-.19,1.07-.02.09-.04.18-.06.27-.33,1.42-.87,2.81-1.63,4.13-.76,1.32-1.7,2.49-2.76,3.48Z"/>
        </g>
        <g>
          <rect class="cls-16" x="126.11" y="329.65" width="137" height="94.65" rx="8.89" ry="8.89"/>
          <g class="cls-1">
            <polygon class="cls-3" points="174.79 354.66 149.01 376.98 174.79 399.3 174.79 387.2 162.98 376.98 174.79 366.76 174.79 354.66"/>
            <polygon class="cls-3" points="214.42 399.3 240.2 376.98 214.42 354.66 214.42 366.76 226.23 376.98 214.42 387.2 214.42 399.3"/>
            <polygon class="cls-3" points="192.11 406.58 181.2 406.58 197.1 347.38 208.02 347.38 192.11 406.58"/>
          </g>
        </g>
        <g>
          <rect class="cls-24" x="478.33" y="69.41" width="151.12" height="151.12" rx="8.89" ry="8.89"/>
          <g class="cls-23">
            <path class="cls-3" d="m591.32,117.09c-3.11,0-6.06.7-8.71,1.94-3.62-12.93-15.48-22.41-29.56-22.41s-25.56,9.18-29.38,21.79c-2.25-.85-4.69-1.32-7.23-1.32-11.3,0-20.47,9.16-20.47,20.47h115.81c0-11.3-9.16-20.47-20.47-20.47Z"/>
            <polygon class="cls-3" points="532.59 172.01 553.89 193.31 575.19 172.01 560.84 172.01 560.84 146.89 546.94 146.89 546.94 172.01 532.59 172.01"/>
          </g>
        </g>
        <g>
          <rect class="cls-6" x="28.72" y="62.57" width="108.77" height="108.77" rx="8.89" ry="8.89"/>
          <rect class="cls-15" x="41.57" y="75.42" width="83.07" height="83.07"/>
          <g>
            <rect class="cls-3" x="55.62" y="91.59" width="7.65" height="3.52"/>
            <rect class="cls-12" x="67.26" y="91.59" width="39.09" height="3.52"/>
            <rect class="cls-3" x="55.62" y="103.39" width="11.88" height="3.52"/>
            <rect class="cls-12" x="71.5" y="103.39" width="39.09" height="3.52"/>
            <rect class="cls-3" x="55.62" y="125.57" width="7.65" height="3.52"/>
            <rect class="cls-12" x="67.26" y="125.57" width="39.09" height="3.52"/>
            <rect class="cls-3" x="55.62" y="137.37" width="11.88" height="3.52"/>
            <rect class="cls-12" x="71.5" y="137.37" width="39.09" height="3.52"/>
            <rect class="cls-3" x="48.56" y="115.19" width="11.88" height="3.52"/>
            <rect class="cls-12" x="64.44" y="115.19" width="53.2" height="3.52"/>
          </g>
        </g>
      </g>
      <g>
        <rect class="cls-19" x="325.63" y="326.69" width="31.85" height="31.85"/>
        <rect class="cls-19" x="371.92" y="326.69" width="31.85" height="31.85"/>
        <rect class="cls-19" x="418.21" y="326.69" width="31.85" height="31.85"/>
        <g>
          <rect class="cls-19" x="465.47" y="240.14" width="48.04" height="3.52"/>
          <rect class="cls-19" x="465.47" y="253.35" width="48.04" height="3.52"/>
          <rect class="cls-19" x="465.47" y="266.56" width="48.04" height="3.52"/>
        </g>
      </g>
    </g>
  </g>
</svg>