<?xml version="1.0" encoding="UTF-8"?>
<svg id="Layer_1" data-name="Layer 1" xmlns="http://www.w3.org/2000/svg" xmlns:xlink="http://www.w3.org/1999/xlink" viewBox="0 0 972.49 743.63">
  <defs>
    <style>
      .cls-1, .cls-2, .cls-3 {
        fill: #fff;
      }

      .cls-4 {
        fill: #6f3428;
      }

      .cls-2 {
        opacity: .4;
      }

      .cls-5, .cls-6 {
        fill: #dee5f8;
      }

      .cls-7 {
        fill: #1f3c88;
      }

      .cls-8 {
        fill: #acbfee;
      }

      .cls-9 {
        opacity: .15;
      }

      .cls-9, .cls-10 {
        fill: #102048;
      }

      .cls-11 {
        opacity: .3;
      }

      .cls-12 {
        fill: #708cd5;
      }

      .cls-13 {
        fill: #e28b6d;
      }

      .cls-14 {
        clip-path: url(#clippath);
      }

      .cls-3 {
        opacity: .6;
      }

      .cls-15 {
        fill: #fbc343;
      }

      .cls-16 {
        fill: #bb9132;
      }

      .cls-6 {
        opacity: .1;
      }

      .cls-17 {
        fill: #f9b384;
      }
    </style>
    <clipPath id="clippath">
      <rect class="cls-1" width="972.49" height="648.33"/>
    </clipPath>
  </defs>
  <rect class="cls-1" width="972.49" height="648.33"/>
  <g class="cls-14">
    <g>
      <g>
        <path class="cls-5" d="m811.71,257.9c0,1.22-.23,2.4-.66,3.51h-37.69s-.04-.05-.06-.08c0,.03-.01.05-.03.08,0,0-1.01,0-2.84.03-18.66.1-122.96.69-122.96-.23,0-10.63,8.13-19.24,18.15-19.24,2.35,0,4.59.47,6.64,1.32,1.91-1.63,4.34-2.59,6.98-2.59,3.81,0,7.2,2.02,9.22,5.12.03-.05.05-.12.08-.17,1.94-4.14,5.73-7.62,10.63-9.91,3.93-1.84,8.56-2.9,13.54-2.9,1.44,0,2.85.09,4.23.26,5.28-10.3,15.59-17.3,27.44-17.3,15.16,0,27.81,11.46,30.63,26.66,1.7-1.12,3.71-1.76,5.86-1.76,4.32,0,8.07,2.58,9.92,6.38,1.87-.67,3.93-1.05,6.11-1.05,5.86,0,10.92,2.72,13.33,6.66.96,1.57,1.5,3.35,1.5,5.21Z"/>
        <path class="cls-2" d="m810.2,252.69c-4.81-1.28-9.96-1.24-14.99-1.18-11.23.13-22.45.26-33.67.39-13.45.16-25.43-7.53-39.17-6.29-6.59.61-13.29,3.29-19.62,3.67-5.02.3-11.13-.6-14.22-3.63,1.94-4.14,5.73-7.62,10.63-9.91,3.93-1.84,8.56-2.9,13.54-2.9,1.44,0,2.85.09,4.23.26,5.28-10.3,15.59-17.3,27.44-17.3,15.16,0,27.81,11.46,30.63,26.66,1.7-1.12,3.71-1.76,5.86-1.76,4.32,0,8.07,2.58,9.92,6.38,1.87-.67,3.93-1.05,6.11-1.05,5.86,0,10.92,2.72,13.33,6.66Z"/>
      </g>
      <g>
        <path class="cls-5" d="m323.54,329.87c0,.8-.16,1.58-.44,2.31h-24.74s-.04-.03-.05-.05c0,.03-.01.04-.01.05,0,0-82.6.53-82.6-.14,0-6.98,5.33-12.63,11.92-12.63,1.54,0,3.01.31,4.36.87,1.26-1.06,2.85-1.7,4.58-1.7,2.5,0,4.72,1.32,6.06,3.36,1.79-3.94,6.11-6.99,11.5-8.07,1.4-.3,2.89-.45,4.42-.45.95,0,1.87.05,2.77.17,3.46-6.76,10.23-11.36,18.01-11.36,9.96,0,18.26,7.53,20.11,17.5,1.12-.74,2.44-1.15,3.85-1.15,2.83,0,5.29,1.7,6.51,4.19,1.22-.44,2.58-.7,4.02-.7,5.37,0,9.74,3.5,9.74,7.81Z"/>
        <path class="cls-2" d="m323.54,329.87c0,.8-.16,1.58-.44,2.31h-14.34c-.88-1.37-1.5-2.93-2.58-4.16-4.9-5.6-15.11-1.12-21.02-5.63-1.08-.82-1.94-1.89-3.06-2.65-3.44-2.28-8-.86-11.98.23-4.07,1.12-8.66,1.72-12.32-.39-1.93-1.12-3.45-3.42-3.7-5.72,1.4-.3,2.89-.45,4.42-.45.95,0,1.87.05,2.77.17,3.46-6.76,10.23-11.36,18.01-11.36,9.96,0,18.26,7.53,20.11,17.5,1.12-.74,2.44-1.15,3.85-1.15,2.83,0,5.29,1.7,6.51,4.19,1.22-.44,2.58-.7,4.02-.7,5.37,0,9.74,3.5,9.74,7.81Z"/>
      </g>
      <g>
        <path class="cls-5" d="m401.24,148.62c0,.99-121.94.19-121.94.19-.01-.03-.01-.04-.01-.06-.03.03-.05.04-.08.06h-36.53c-.41-1.08-.64-2.22-.64-3.4,0-6.37,6.43-11.51,14.37-11.51,2.11,0,4.12.36,5.93,1.01,1.8-3.67,5.43-6.17,9.62-6.17,2.07,0,4.02.62,5.67,1.7,2.74-14.73,15-25.83,29.69-25.83.1,0,.21,0,.31.01,11.36.1,21.21,6.86,26.28,16.75,1.32-.17,2.7-.26,4.1-.26,10.89,0,20.16,5.25,23.5,12.58,1.97-3,5.24-4.95,8.93-4.95,2.55,0,4.91.93,6.77,2.52,1.98-.83,4.16-1.28,6.43-1.28,7.04,0,13.11,4.38,15.92,10.71,1.08,2.4,1.67,5.1,1.67,7.94Z"/>
        <path class="cls-2" d="m399.56,140.69c-5.48,1.84-11.66,2.07-17.53,2.2-13.71.3-28.28.38-39.94-6.82-4.05-2.49-7.61-5.8-11.97-7.68-7.29-3.15-16.65-2.31-22.02-8.14-3.48-3.77-4.1-9.89-1.44-14.29.29-.47.6-.92.96-1.34,11.36.1,21.21,6.86,26.28,16.75,1.32-.17,2.7-.26,4.1-.26,10.89,0,20.16,5.25,23.5,12.58,1.97-3,5.24-4.95,8.93-4.95,2.55,0,4.91.93,6.77,2.52,1.98-.83,4.16-1.28,6.43-1.28,7.04,0,13.11,4.38,15.92,10.71Z"/>
      </g>
    </g>
    <g>
      <g>
        <polygon class="cls-7" points="791.93 740.52 302.69 743.05 190.61 743.63 240.32 644.21 291.59 599.16 361.49 577.41 393.85 533.4 540.92 533.4 598.54 581.42 684.74 609.38 735.1 656.64 736.3 658.41 790.4 738.29 791.93 740.52"/>
        <polygon class="cls-6" points="790.4 738.29 752.97 734.31 664.93 676.32 554.9 659.74 520.72 612.36 515.8 577.92 471.12 566.64 453.83 533.4 540.92 533.4 598.54 581.42 684.74 609.38 735.1 656.64 736.3 658.41 790.4 738.29"/>
        <polygon class="cls-10" points="395.93 606.92 323.43 649.39 302.69 743.05 190.61 743.63 240.32 644.21 291.59 599.16 361.49 577.41 393.85 533.4 395.93 606.92"/>
      </g>
      <g>
        <g>
          <path class="cls-17" d="m512.41,516.93l.14-12.09-17.51,1.24-.5,9.99c5.58,1.16,11.93,1.45,17.88.86Z"/>
          <path class="cls-10" d="m531.36,533.33c-4.75-7.78-11.24-10.37-18.99-11.35l.04-5.05c-5.95.59-12.3.3-17.88-.86l-.87,17.26h37.71Z"/>
        </g>
        <g>
          <path class="cls-10" d="m425.48,518.11l-1.6,3.66c-7.75.98-14.69,5.16-21.06,11.56h36.74l3.91-15.18c-6.27,1.07-12.26.99-18-.04Z"/>
          <path class="cls-17" d="m443.48,518.15l3.11-12.07-15.48-.83-5.62,12.85c5.74,1.03,11.72,1.11,18,.04Z"/>
        </g>
        <path class="cls-10" d="m520.49,329.17c9.22,60,6.61,119.73-6.19,180h-22.02c2.63-39.12,4.64-85.63-1.51-116.42l-42.01,116.94h-24.05l39.63-166.48,13.62-26.7,31.93-3.85,10.6,16.51Z"/>
        <path class="cls-17" d="m549.8,201.19l5.92-17.75,16.02,3.74c1.21,5.94-5.99,14.96-11.34,21.72l-10.6-7.71Z"/>
        <polygon class="cls-17" points="495.79 264.55 477.34 264.77 475.51 240.61 475.29 237.72 493.82 237.55 494.48 246.72 495.79 264.55"/>
        <path class="cls-10" d="m494.38,245.06c-6.04,4.31-13.93,1.63-18.87-4.45l-.21-2.89,18.53-.17.56,7.5Z"/>
        <path class="cls-17" d="m490.07,243.03c-9.36,2.14-19.81-3.86-23.94-11.84l-.56-14.32,5.24-7.43,22.29,1.92c-.1.03-.09.34,0,.87.26,1.39,1.12,4.34,1.91,7.91,1.94,8.67,3.5,20.95-4.94,22.89Z"/>
        <path class="cls-1" d="m474.39,255.41s13.76,11.01,25.73-4.68l22.71,75.41c-13.9,9.82-31.48,13.22-52.57,10.46l4.13-81.19Z"/>
        <g class="cls-11">
          <path class="cls-7" d="m477.34,264.77c1.9.69,3.85,1.11,5.8,1.32,1.95.2,3.9.15,5.79-.23,1.89-.37,3.75-.96,5.46-1.91.9-.4,1.68-1,2.54-1.51.84-.53,1.58-1.21,2.44-1.77-.63.78-1.29,1.57-2.01,2.3-.78.65-1.52,1.4-2.42,1.91-1.7,1.2-3.71,1.91-5.76,2.34-4.11.79-8.5-.13-11.85-2.44Z"/>
        </g>
        <path class="cls-7" d="m549.18,197.89c-12.45,21.02-24.59,39.5-35.57,48.3-1.63,1.31-3.71,1.89-5.79,1.78-4.13-.21-8.39.29-13.13,1.42,1,37.73,4.57,72.67,17.41,94.1,7.73-2.23,17.11-5.81,22.29-10.18-4.22-14.34-9.22-34.89-12.94-52.84l41.15-73.49-13.42-9.08Z"/>
        <path class="cls-13" d="m495.01,220.15c-14.17,8.07-25.95-6.63-25.95-6.63l24.04-1.28c.26,1.39,1.12,4.34,1.91,7.91Z"/>
        <path class="cls-10" d="m469.3,228.44c1.74-2.25,2.53-6.02.96-13.62,5.16,5.84,12.83,7.2,24.08,2.2,0,0,7.32-2.86,5.64-10.32-1.51-6.74-7.16-10.32-11.56-4.82-9.99-2.92-19.82-3.44-24.22,5.64,0,0-14.04,7.29-2.06,19.13l7.16,1.79Z"/>
        <polygon class="cls-7" points="448.83 384.25 446.41 383.71 448.94 372.41 432.26 368.35 430.05 378.67 427.63 378.15 430.37 365.34 451.88 370.58 448.83 384.25"/>
        <path class="cls-17" d="m439.02,348.61c-.41.57-1.93,12.21-1.93,12.21,0,0-6.74,6.32-2.2,10.2,4.54,3.88,10.05,3.74,12.66.86.91-2.81.98-6.1-.14-10.06l2.61-12.93-11.01-.29Z"/>
        <polygon class="cls-8" points="461.17 383.47 454.52 411.66 451.96 422.54 408.74 406.31 414.44 382.55 417.15 371.22 461.17 383.47"/>
        <g>
          <polygon class="cls-4" points="582.28 196.04 559.33 209.95 558.3 201.89 575.6 191.4 582.28 196.04"/>
          <polygon class="cls-16" points="569.89 194.86 564.01 198.43 550.04 178.57 558.75 173.29 569.89 194.86"/>
          <path class="cls-15" d="m559.93,172.59l-11.05,6.7c-2.47,1.5-5.68.96-7.52-1.27l-18.5-22.37,28.14-17.06,11.28,26.74c1.12,2.67.12,5.75-2.35,7.26Z"/>
          <path class="cls-15" d="m558.57,158.48l-1.52-.63c4.25-10.22,3.51-18.53.39-20.36-1.62-.95-3.87.17-6.17,3.08l-1.3-1.02c4.07-5.15,7.16-4.15,8.3-3.48,3.8,2.23,4.95,11.23.3,22.42Z"/>
          <path class="cls-15" d="m536.55,171.85c-12.08-1.05-19.52-6.24-19.74-10.64-.07-1.32.48-4.53,6.93-5.75l.31,1.62c-3.64.69-5.68,2.16-5.59,4.04.18,3.61,7.2,8.11,18.23,9.08l-.14,1.64Z"/>
          <path class="cls-3" d="m546.81,153.08c-.97-1.68-.92-3.52.11-4.12,1.03-.59,2.65.28,3.62,1.96.97,1.68.92,3.52-.11,4.12-1.03.59-2.65-.28-3.62-1.96Z"/>
        </g>
        <path class="cls-17" d="m571.73,186.76c.4,2.86-1.41,5.42-5.22,5.42-2.38,0-5.72-3.27-6.43-7.15-.58-3.2.65-5.3,2.91-6.23,2.32-.96,7.98,2.57,8.74,7.97Z"/>
        <g>
          <rect class="cls-15" x="507.08" y="128.59" width="2.59" height="21.07" transform="translate(222.91 582.2) rotate(-72.51)"/>
          <rect class="cls-15" x="530.65" y="117.71" width="21.07" height="2.59" transform="translate(329.88 631.24) rotate(-79.99)"/>
          <rect class="cls-15" x="519.74" y="112.9" width="2.59" height="21.07" transform="translate(15.66 300.39) rotate(-32.62)"/>
        </g>
        <path class="cls-7" d="m462.83,302.48l-3.3,49.82c18.44-.83,30.83-6.88,30.83-6.88,1.6-29.73-2.22-63-13.99-92.93-29.89,11.11-38.32,47.91-42.75,102.6l17.51,2.03,11.71-54.64Z"/>
        <path class="cls-17" d="m469.57,233.39c-5.62,2.01-9.22,1.55-9.52-3.82-.17-3.08,3.01-5.54,5.81-4.24,1.21.56,2.35,1.64,3.43,3.11l.28,4.95Z"/>
        <path class="cls-9" d="m454.52,411.66l-2.56,10.88-43.22-16.23,5.7-23.76c5.32,11,16.56,24.64,40.08,29.11Z"/>
        <path class="cls-10" d="m517.71,263.46c.74,2.36,1.39,4.75,2.02,7.14.64,2.39,1.21,4.79,1.77,7.2.55,2.41,1.08,4.82,1.55,7.25.47,2.43.93,4.86,1.26,7.31l-.63.14c-.76-2.36-1.41-4.75-2.04-7.14-.63-2.39-1.2-4.79-1.75-7.2-.54-2.41-1.07-4.82-1.53-7.25-.48-2.43-.93-4.86-1.29-7.31l.63-.14Z"/>
        <path class="cls-10" d="m463.7,285.7c.08,2.39.07,4.79.03,7.17-.02,2.39-.12,4.78-.22,7.16-.11,2.39-.25,4.77-.44,7.15-.2,2.38-.41,4.76-.74,7.14l-.64-.03c-.1-2.4-.08-4.79-.05-7.18.03-2.39.13-4.78.24-7.16.13-2.38.26-4.77.47-7.15.19-2.38.41-4.76.72-7.14l.64.03Z"/>
        <path class="cls-12" d="m486.74,403.11c.74-2.73,1.58-5.42,2.43-8.11.84-2.69,1.79-5.35,2.67-8.02.94-2.66,1.89-5.31,2.88-7.95,1.01-2.63,2.03-5.26,3.16-7.85l.61.21c-.72,2.73-1.56,5.42-2.41,8.11-.87,2.68-1.77,5.35-2.7,8.01-.97,2.65-1.88,5.31-2.9,7.94-1,2.64-2.02,5.26-3.14,7.86l-.61-.21Z"/>
        <path class="cls-10" d="m466.2,230.41c-.29-.4-.56-.82-.84-1.21-.29-.38-.56-.76-.89-1.03-.32-.29-.61-.42-.92-.34-.34.04-.68.41-1.06.71l-.32-.2c.21-.48.46-1.02,1.1-1.31.67-.3,1.43.04,1.83.42.82.82,1.26,1.78,1.46,2.82l-.35.13Z"/>
        <path class="cls-17" d="m559.85,187.61c.6-2.28.29-4.33-.69-4.59-.98-.26-2.5.8-3.1,3.08-.6,2.28-1.29,5.56.26,6.29,2.75,1.3,2.93-2.5,3.53-4.78Z"/>
      </g>
    </g>
  </g>
</svg>